<?xml version="1.0" encoding="UTF-8"?>
<svg fill="none" viewBox="0 0 61 61" xmlns="http://www.w3.org/2000/svg">
<g clip-path="url(#a)">
<path d="m59.25 16.94c-0.3398-1.212-1.0015-2.3092-1.915-3.175-0.9393-0.8925-2.0905-1.5309-3.345-1.855-4.695-1.2375-23.505-1.2375-23.505-1.2375-7.8417-0.0893-15.681 0.3032-23.475 1.175-1.2545 0.348-2.4036 1.0007-3.345 1.9-0.925 0.89-1.595 1.9875-1.945 3.19-0.84077 4.5293-1.2493 9.1283-1.22 13.735-0.03 4.6025 0.3775 9.2 1.22 13.735 0.3425 1.1975 1.01 2.29 1.9375 3.1725s2.0825 1.52 3.3525 1.8575c4.7575 1.235 23.475 1.235 23.475 1.235 7.8516 0.0893 15.701-0.3031 23.505-1.175 1.2545-0.3241 2.4057-0.9625 3.345-1.855 0.9131-0.8657 1.5741-1.9631 1.9125-3.175 0.8627-4.5276 1.2822-9.1286 1.2525-13.738 0.0649-4.6285-0.3541-9.2511-1.25-13.792v0.0025zm-34.745 22.292v-17.118l15.65 8.56-15.65 8.5575z" fill="#fff"/>
</g>
<defs>
<clipPath id="a">
<rect transform="translate(.5 .67212)" width="60" height="60" fill="#fff"/>
</clipPath>
</defs>
</svg>
