<?xml version="1.0" encoding="UTF-8"?>
<svg fill="none" viewBox="0 0 61 61" xmlns="http://www.w3.org/2000/svg">
<path d="m24.072 23.095h9.285v4.625c1.3375-2.66 4.7675-5.05 9.92-5.05 9.8775 0 12.222 5.295 12.222 15.01v17.992h-10v-15.78c0-5.5325-1.3375-8.6525-4.7425-8.6525-4.7225 0-6.685 3.3625-6.685 8.65v15.782h-10v-32.578zm-17.148 32.152h10v-32.578h-10v32.578zm11.432-43.2c4e-4 0.8382-0.1659 1.6681-0.489 2.4415-0.3232 0.7734-0.7969 1.4748-1.3935 2.0635-1.209 1.2016-2.8455 1.8742-4.55 1.87-1.7015-0.0011-3.3342-0.672-4.545-1.8675-0.59447-0.5907-1.0665-1.2929-1.3891-2.0664-0.32261-0.7735-0.48941-1.603-0.49086-2.4411 0-1.6925 0.675-3.3125 1.8825-4.5075 1.2097-1.1971 2.8431-1.8682 4.545-1.8675 1.705 0 3.34 0.6725 4.5475 1.8675 1.205 1.195 1.8825 2.815 1.8825 4.5075z" clip-rule="evenodd" fill="#fff" fill-rule="evenodd"/>
</svg>
