<?xml version="1.0" encoding="UTF-8"?>
<svg fill="none" viewBox="0 0 61 61" xmlns="http://www.w3.org/2000/svg">
<path d="m59.608 13.015c-2.0875 0.925-4.33 1.55-6.6875 1.8325 2.4325-1.4556 4.2524-3.7464 5.12-6.445-2.2854 1.3575-4.7866 2.313-7.395 2.825-1.754-1.8729-4.0773-3.1142-6.6092-3.5314-2.5318-0.41713-5.1305 0.0133-7.3927 1.2244-2.2621 1.2112-4.0611 3.1353-5.1177 5.4736-1.0565 2.3384-1.3115 4.9601-0.7254 7.4583-4.6308-0.2325-9.1609-1.4362-13.296-3.5328s-7.784-5.0393-10.709-8.6372c-1 1.725-1.575 3.725-1.575 5.855-0.00112 1.9175 0.47108 3.8056 1.3747 5.4968 0.90361 1.6912 2.2107 3.1333 3.8053 4.1982-1.8493-0.0589-3.6578-0.5586-5.275-1.4575v0.15c-1.9e-4 2.6893 0.93008 5.2959 2.633 7.3775 1.7029 2.0815 4.0735 3.5098 6.7095 4.0425-1.7155 0.4643-3.5141 0.5326-5.26 0.2 0.74374 2.314 2.1925 4.3375 4.1434 5.7873 1.951 1.4497 4.3064 2.2531 6.7366 2.2977-4.1254 3.2385-9.2203 4.9952-14.465 4.9875-0.92905 2e-4 -1.8573-0.054-2.78-0.1625 5.3237 3.4229 11.521 5.2395 17.85 5.2325 21.425 0 33.138-17.745 33.138-33.135 0-0.5-0.0125-1.005-0.035-1.505 2.2783-1.6476 4.2448-3.6878 5.8075-6.025l5e-3 -0.0075z" fill="#fff"/>
</svg>
