<?xml version="1.0" encoding="UTF-8"?>
<svg viewBox="0 0 107 81" xmlns="http://www.w3.org/2000/svg">
<path d="m100.16 80.672s6.677 0 6.677-6.6667c0-6.6666-6.677-26.667-33.385-26.667-26.708 0-33.385 20-33.385 26.667 0 6.6667 6.677 6.6667 6.677 6.6667h53.416zm-53.269-6.6667c-0.0493-0.0067-0.0983-0.0156-0.1469-0.0266 0.0067-1.76 1.1151-6.8667 5.0746-11.467 3.6857-4.3133 10.162-8.5066 21.634-8.5066 11.464 0 17.941 4.2 21.634 8.5066 3.9595 4.6 5.0613 9.7134 5.0743 11.467l-0.053 0.0133c-0.031 0.0053-0.062 0.0097-0.094 0.0133h-53.122zm26.561-40c3.5417 0 6.9384-1.4048 9.4427-3.9053 2.5044-2.5005 3.9113-5.8919 3.9113-9.4281s-1.4069-6.9276-3.9113-9.4281c-2.5043-2.5005-5.901-3.9052-9.4427-3.9052s-6.9383 1.4048-9.4427 3.9052c-2.5044 2.5005-3.9113 5.8919-3.9113 9.4281s1.4069 6.9276 3.9113 9.4281 5.901 3.9053 9.4427 3.9053zm20.031-13.333c0 2.6265-0.5181 5.2272-1.5248 7.6537s-2.4821 4.6313-4.3422 6.4885c-1.86 1.8571-4.0683 3.3303-6.4985 4.3354-2.4303 1.0051-5.0351 1.5224-7.6656 1.5224s-5.2353-0.5173-7.6656-1.5224c-2.4302-1.0051-4.6384-2.4783-6.4985-4.3354-1.86-1.8572-3.3355-4.062-4.3422-6.4885-1.0066-2.4265-1.5248-5.0272-1.5248-7.6537 0-5.3043 2.1105-10.391 5.867-14.142 3.7566-3.7507 8.8515-5.8579 14.164-5.8579s10.408 2.1071 14.164 5.8579c3.7566 3.7507 5.867 8.8378 5.867 14.142zm-60.627 33.333-0.0044 0.0067 0.0044-1e-4v-0.0066z" clip-rule="evenodd" fill="#E6E6E6" fill-rule="evenodd"/>
<path d="m10.016 24.006c0-5.3044 2.1104-10.392 5.867-14.142 3.7565-3.7507 8.8515-5.8579 14.164-5.8579 5.3125 0 10.408 2.1071 14.164 5.8579 3.7565 3.7507 5.8669 8.8378 5.8669 14.142 0 5.3043-2.1104 10.391-5.8669 14.142-3.7566 3.7507-8.8516 5.8578-14.164 5.8578-5.3126 0-10.408-2.1071-14.164-5.8578-3.7566-3.7507-5.867-8.8378-5.867-14.142zm10.588-9.4281c2.5043-2.5005 5.901-3.9053 9.4427-3.9053s6.9383 1.4048 9.4427 3.9053c2.5044 2.5004 3.9113 5.8918 3.9113 9.4281 0 3.5362-1.4069 6.9276-3.9113 9.428-2.5044 2.5005-5.901 3.9053-9.4427 3.9053s-6.9384-1.4048-9.4427-3.9053c-2.5044-2.5004-3.9114-5.8918-3.9114-9.428 0-3.5363 1.407-6.9277 3.9114-9.4281z" clip-rule="evenodd" fill="#D7E026" fill-rule="evenodd"/>
<path d="m46.312 49.206c-2.6709-0.8398-5.4242-1.3918-8.2127-1.6467-1.5669-0.1488-3.1401-0.2222-4.714-0.22-26.708 0-33.385 20-33.385 26.667 0 4.4467 2.2234 6.6667 6.677 6.6667h28.15c-0.9898-2.0812-1.4834-4.363-1.4422-6.6667 0-6.7333 2.5172-13.613 7.2779-19.36 1.6226-1.9601 3.5122-3.7934 5.6488-5.44zm-19.604 24.8h-20.031c0-1.7333 1.095-6.8666 5.0746-11.493 3.6384-4.2394 9.9604-8.3722 21.095-8.4999l0.0044-0.0067v0.0066l-0.0044 1e-4c-3.9489 5.927-6.0821 12.875-6.1384 19.993z" clip-rule="evenodd" fill="#D7E026" fill-rule="evenodd"/>
</svg>
