<?xml version="1.0" encoding="UTF-8"?>
<svg fill="none" viewBox="0 0 652 631" xmlns="http://www.w3.org/2000/svg">
<path d="m6.1714 183.65c1.8053 6.663 0.91793-5.595 4.452-20.572 3.534-14.977 9.6077-8.913 9.6077-8.913" stroke="#263238" stroke-linecap="round" stroke-linejoin="round" stroke-width="1.4879"/>
<path d="m5.0698 168.34 11.092-4.228" stroke="#263238" stroke-linecap="round" stroke-linejoin="round" stroke-width="1.4879"/>
<path d="m25.326 159.03s-6.6244 12.814 3.3658 18.195" stroke="#263238" stroke-linecap="round" stroke-linejoin="round" stroke-width="1.4879"/>
<path d="m34.734 155.44s10.954 5.695 4.1001 17.91" stroke="#263238" stroke-linecap="round" stroke-linejoin="round" stroke-width="1.4879"/>
<path d="m27.238 163.36 7.8483 5.325" stroke="#263238" stroke-linecap="round" stroke-linejoin="round" stroke-width="1.4879"/>
<path d="m33.388 161.01-6.1348 9.098" stroke="#263238" stroke-linecap="round" stroke-linejoin="round" stroke-width="1.4879"/>
<path d="m68.632 297.36c1.4929-8.465-4.6711-16.453-13.768-17.843-9.0965-1.389-17.681 4.347-19.174 12.812s4.6711 16.454 13.768 17.843c9.0966 1.389 17.681-4.347 19.174-12.812z" stroke="#263238" stroke-linecap="round" stroke-linejoin="round" stroke-width="1.4879"/>
<path d="m78.533 317.8c10.015-1.911 16.469-11.016 14.415-20.336s-11.838-15.326-21.853-13.414c-10.015 1.911-16.469 11.016-14.415 20.336s11.838 15.326 21.853 13.414z" stroke="#263238" stroke-linecap="round" stroke-linejoin="round" stroke-width="1.4879"/>
<path d="m67.367 288.43-7.68 2.548" stroke="#263238" stroke-linecap="round" stroke-linejoin="round" stroke-width="1.4879"/>
<path d="m68.438 291.38-11.046 3.716" stroke="#263238" stroke-linecap="round" stroke-linejoin="round" stroke-width="1.4879"/>
<path d="m68.851 294.94-12.331 4.414" stroke="#263238" stroke-linecap="round" stroke-linejoin="round" stroke-width="1.4879"/>
<path d="m67.979 299.79-11.245 4.783" stroke="#263238" stroke-linecap="round" stroke-linejoin="round" stroke-width="1.4879"/>
<path d="m65.99 303.52-8.5368 3.303" stroke="#263238" stroke-linecap="round" stroke-linejoin="round" stroke-width="1.4879"/>
<path d="m60.222 271.18c-0.4742-1.424-5.8901-2.306-6.1195 1.424-0.2295 3.73 5.7065 0.626 7.3893-1.424 0 0-3.0598 3.83-1.7746 4.584" stroke="#263238" stroke-linecap="round" stroke-linejoin="round" stroke-width="1.4879"/>
<path d="m90.208 275.82-4.8038 9.297s2.4019-4.656 4.9721-4.271c3.1669 0.527 1.0557 5.353-2.7691 3.573" stroke="#263238" stroke-linecap="round" stroke-linejoin="round" stroke-width="1.4879"/>
<path d="m612.99 427.61 7.543 6.634" stroke="#263238" stroke-linecap="round" stroke-linejoin="round" stroke-width="1.4879"/>
<path d="m620.53 425.87-6.319 8.784" stroke="#263238" stroke-linecap="round" stroke-linejoin="round" stroke-width="1.4879"/>
<path d="m627.95 428.39 7.557-2.62" stroke="#263238" stroke-linecap="round" stroke-linejoin="round" stroke-width="1.4879"/>
<path d="m639.13 418.46 4.59 3.773" stroke="#263238" stroke-linecap="round" stroke-linejoin="round" stroke-width="1.4879"/>
<path d="m647.24 413.91-5.813 18.565" stroke="#263238" stroke-linecap="round" stroke-linejoin="round" stroke-width="1.4879"/>
<path d="m295.17 323.32 20.302-12.998 26.88 1.751 1.683 31.72-19.736 13.126-24.356-1.651-4.773-31.948z" stroke="#263238" stroke-linecap="round" stroke-linejoin="round" stroke-width="1.4879"/>
<path d="m299.94 355.27 19.66-13.169 24.432 1.694" stroke="#263238" stroke-linecap="round" stroke-linejoin="round" stroke-width="1.4879"/>
<path d="m319.6 342.1-4.131-31.777" stroke="#263238" stroke-linecap="round" stroke-linejoin="round" stroke-width="1.4879"/>
<path d="m295.17 323.32 26.819 2.89 20.363-14.137" stroke="#263238" stroke-linecap="round" stroke-linejoin="round" stroke-width="1.4879"/>
<path d="m321.99 326.21 2.31 30.709" stroke="#263238" stroke-linecap="round" stroke-linejoin="round" stroke-width="1.4879"/>
<path d="m532.12 216.76-8.995 26.01 27.997-3.516-19.002-22.494z" stroke="#263238" stroke-linecap="round" stroke-linejoin="round" stroke-width="1.4879"/>
<path d="m532.12 216.76 5.003 24.103" stroke="#263238" stroke-linecap="round" stroke-linejoin="round" stroke-width="1.4879"/>
<path d="m536.32 237.01 3.274-0.485 0.764 4.086" stroke="#263238" stroke-linecap="round" stroke-linejoin="round" stroke-width="1.4879"/>
<path d="m179.54 454.79 13.984 6.393" stroke="#263238" stroke-linecap="round" stroke-linejoin="round" stroke-width="1.4879"/>
<path d="m189.01 449.9-4.008 13.596" stroke="#263238" stroke-linecap="round" stroke-linejoin="round" stroke-width="1.4879"/>
<path d="m190.95 443.27c0.23-0.221 0.511-0.389 0.823-0.491 0.312-0.101 0.645-0.133 0.972-0.093 0.327 0.041 0.64 0.152 0.913 0.325s0.498 0.403 0.658 0.671c1.408 2.051-1.346 6.35-1.346 6.35l5.614-1.993" stroke="#263238" stroke-linecap="round" stroke-linejoin="round" stroke-width="1.4879"/>
<path d="m289.32 6.9537c13.356 6.9903-1.943 24.074-1.943 34.04 0 9.9657 15.299 8.5421 22.948 11.389 3.06 0 9.18 0 9.011 7.2323" stroke="#263238" stroke-linecap="round" stroke-linejoin="round" stroke-width="1.4879"/>
<path d="m274.44 16.023c2.326 11.774 16.829 7.6024 25.733 10.293 15.299 4.627 6.808 19.319 2.249 28.203-2.739 5.296-5.462 12.728-0.566 17.753" stroke="#263238" stroke-linecap="round" stroke-linejoin="round" stroke-width="1.4879"/>
<path d="m276.4 20.593 15.926-12.315" stroke="#263238" stroke-linecap="round" stroke-linejoin="round" stroke-width="1.4879"/>
<path d="m282.64 24.266 11.995-9.2539" stroke="#263238" stroke-linecap="round" stroke-linejoin="round" stroke-width="1.4879"/>
<path d="m289.69 33.634 10.128-7.4032" stroke="#263238" stroke-linecap="round" stroke-linejoin="round" stroke-width="1.4879"/>
<path d="m287.59 44.71 19.797-13.24" stroke="#263238" stroke-linecap="round" stroke-linejoin="round" stroke-width="1.4879"/>
<path d="m295.18 49.878 13.799-9.4248" stroke="#263238" stroke-linecap="round" stroke-linejoin="round" stroke-width="1.4879"/>
<path d="m301.06 69.909 17.242-13.069" stroke="#263238" stroke-linecap="round" stroke-linejoin="round" stroke-width="1.4879"/>
<path d="m301.49 59.63 11.244-7.3604" stroke="#263238" stroke-linecap="round" stroke-linejoin="round" stroke-width="1.4879"/>
<path d="m76.364 461.88c16.428-6.114 24.419-23.464 17.848-38.751-6.5706-15.287-25.214-22.723-41.642-16.608-16.428 6.114-24.418 23.463-17.848 38.751 6.5706 15.287 25.214 22.723 41.642 16.608z" stroke="#263238" stroke-linecap="round" stroke-linejoin="round" stroke-width="1.4879"/>
<path d="m72.523 405.36c11.168-12.201 20.669-19.106 24.325-16.857 5.5692 3.403-4.4213 26.638-22.306 51.879-17.884 25.242-36.901 42.953-42.47 39.536-3.6718-2.235-0.5814-13.084 7.068-27.448" stroke="#263238" stroke-linecap="round" stroke-linejoin="round" stroke-width="1.4879"/>
<path d="m33.113 440.32c-15.574-4.172-25.519-9.041-24.891-12.927 0.90264-6.151 27.813-7.574 59.956-3.09 32.143 4.485 57.416 12.984 56.453 19.106-0.689 4.271-13.769 6.221-32.358 5.567" stroke="#263238" stroke-linecap="round" stroke-linejoin="round" stroke-width="1.4879"/>
<path d="m37.198 418.72c-11.75-19.732-17.624-35.122-13.647-37.528 5.2322-3.146 25.457 17.269 45.178 45.558 19.72 28.288 31.454 53.858 26.238 57.018-3.4575 2.079-13.478-6.15-25.58-20.159" stroke="#263238" stroke-linecap="round" stroke-linejoin="round" stroke-width="1.4879"/>
<path d="m101.36 401.4c-0.571 0.809-1.386 1.443-2.3433 1.822-0.9573 0.378-2.0136 0.484-3.0356 0.304-1.0219-0.18-1.9637-0.638-2.7063-1.315-0.7427-0.678-1.2529-1.545-1.4663-2.492-0.2134-0.948-0.1204-1.932 0.2672-2.831 0.3877-0.898 1.0526-1.669 1.9109-2.215 0.8583-0.547 1.8714-0.845 2.9114-0.856 1.04-0.012 2.0603 0.264 2.932 0.792 0.581 0.352 1.081 0.807 1.472 1.339 0.391 0.531 0.666 1.13 0.808 1.761s0.149 1.282 0.02 1.915c-0.128 0.634-0.39 1.237-0.77 1.776z" fill="#263238"/>
<path d="m83.936 476.41c-0.5705 0.809-1.3859 1.443-2.3432 1.821-0.9573 0.379-2.0136 0.485-3.0356 0.305-1.0219-0.18-1.9637-0.638-2.7063-1.315-0.7427-0.678-1.2529-1.545-1.4663-2.492-0.2134-0.948-0.1204-1.933 0.2672-2.831 0.3877-0.898 1.0527-1.669 1.9109-2.216 0.8583-0.546 1.8714-0.844 2.9114-0.855 1.04-0.012 2.0603 0.264 2.932 0.792 0.5806 0.352 1.0809 0.806 1.4722 1.338s0.6658 1.131 0.808 1.762c0.1421 0.631 0.149 1.282 0.0202 1.915-0.1287 0.633-0.3906 1.237-0.7705 1.776z" fill="#263238"/>
<path d="m55.816 425.52c-0.5705 0.81-1.3859 1.443-2.3432 1.822-0.9573 0.378-2.0136 0.484-3.0355 0.304-1.022-0.18-1.9637-0.637-2.7064-1.315-0.7426-0.678-1.2529-1.545-1.4663-2.492s-0.1204-1.932 0.2673-2.83c0.3876-0.898 1.0526-1.67 1.9108-2.216 0.8583-0.547 1.8714-0.845 2.9114-0.856s2.0603 0.264 2.932 0.792c1.1694 0.713 1.9872 1.828 2.274 3.101 0.2868 1.274 0.0192 2.601-0.7441 3.69z" fill="#263238"/>
<path d="m391.34 212.42h18.022l9.011-14.522-9.011-14.522h-18.022l-9.011 14.522 9.011 14.522z" stroke="#263238" stroke-linecap="round" stroke-linejoin="round" stroke-width="1.4879"/>
<path d="m388.72 244.3-9.011-14.522h-18.022" stroke="#263238" stroke-linecap="round" stroke-linejoin="round" stroke-width="1.4879"/>
<path d="m364.1 197.9h18.022l9.011-14.522-9.011-14.535h-18.022l-9.011 14.535 9.011 14.522z" stroke="#263238" stroke-linecap="round" stroke-linejoin="round" stroke-width="1.4879"/>
<path d="m391.34 183.38h18.022l9.011-14.535-9.011-14.522h-18.022l-9.011 14.522 9.011 14.535z" stroke="#263238" stroke-linecap="round" stroke-linejoin="round" stroke-width="1.4879"/>
<path d="m391.14 185.63c1.335 0 2.417-1.007 2.417-2.25 0-1.242-1.082-2.249-2.417-2.249s-2.417 1.007-2.417 2.249c0 1.243 1.082 2.25 2.417 2.25z" fill="#263238"/>
<path d="m353.5 155.13c1.335 0 2.417-1.007 2.417-2.25 0-1.242-1.082-2.249-2.417-2.249s-2.417 1.007-2.417 2.249c0 1.243 1.082 2.25 2.417 2.25z" fill="#263238"/>
<path d="m386.3 244.3c0-0.445 0.141-0.88 0.407-1.25s0.643-0.658 1.085-0.828c0.442-0.171 0.928-0.215 1.397-0.128 0.468 0.086 0.899 0.301 1.237 0.615 0.338 0.315 0.568 0.716 0.662 1.152 0.093 0.436 0.045 0.889-0.138 1.3s-0.493 0.762-0.89 1.009c-0.398 0.247-0.865 0.379-1.343 0.379-0.317 0-0.632-0.058-0.925-0.171s-0.56-0.279-0.784-0.488c-0.225-0.208-0.403-0.456-0.524-0.729-0.122-0.273-0.184-0.566-0.184-0.861z" fill="#263238"/>
<path d="m361.69 232.02c1.335 0 2.417-1.007 2.417-2.25 0-1.242-1.082-2.249-2.417-2.249s-2.417 1.007-2.417 2.249c0 1.243 1.082 2.25 2.417 2.25z" fill="#263238"/>
<path d="m435.81 169.25c0-0.448 0.143-0.886 0.411-1.259 0.268-0.372 0.649-0.662 1.094-0.833s0.935-0.215 1.408-0.127c0.472 0.089 0.905 0.306 1.245 0.624 0.339 0.318 0.57 0.723 0.662 1.163s0.042 0.895-0.145 1.309c-0.186 0.413-0.5 0.766-0.902 1.013s-0.874 0.377-1.356 0.374c-0.319 0-0.634-0.059-0.928-0.172-0.295-0.114-0.562-0.281-0.787-0.492-0.224-0.21-0.402-0.46-0.523-0.734-0.12-0.275-0.181-0.569-0.179-0.866z" fill="#263238"/>
<path d="m379.52 232.02c1.335 0 2.418-1.007 2.418-2.25 0-1.242-1.083-2.249-2.418-2.249s-2.417 1.007-2.417 2.249c0 1.243 1.082 2.25 2.417 2.25z" fill="#263238"/>
<path d="m415.95 169.25c0-0.447 0.143-0.885 0.41-1.257s0.647-0.663 1.091-0.834c0.445-0.171 0.934-0.216 1.406-0.129 0.472 0.088 0.905 0.303 1.245 0.62 0.341 0.316 0.572 0.72 0.666 1.159s0.046 0.894-0.138 1.308c-0.184 0.413-0.496 0.767-0.896 1.016-0.4 0.248-0.87 0.381-1.352 0.381-0.645 0-1.263-0.238-1.72-0.663-0.456-0.424-0.712-1-0.712-1.601z" fill="#263238"/>
<path d="m388.72 212.43c-3e-3 -0.449 0.137-0.889 0.403-1.263 0.267-0.375 0.646-0.667 1.091-0.84 0.446-0.173 0.936-0.219 1.409-0.132 0.474 0.087 0.908 0.303 1.249 0.62 0.342 0.317 0.574 0.722 0.667 1.162 0.093 0.441 0.044 0.897-0.142 1.311-0.186 0.415-0.5 0.768-0.903 1.016-0.402 0.247-0.874 0.378-1.357 0.375-0.64-4e-3 -1.252-0.242-1.705-0.663-0.452-0.421-0.708-0.991-0.712-1.586z" fill="#263238"/>
<path d="m418.38 169.22h19.842" stroke="#263238" stroke-linecap="round" stroke-linejoin="round" stroke-width="1.4879"/>
<path d="m391.14 212.43-11.612 17.34" stroke="#263238" stroke-linecap="round" stroke-linejoin="round" stroke-width="1.4879"/>
<path d="m364.1 168.84-10.602-15.96" stroke="#263238" stroke-linecap="round" stroke-linejoin="round" stroke-width="1.4879"/>
<path d="m491.93 111.59c2.079-6.538 6.411-12.258 12.33-16.278 5.918-4.02 13.093-6.1164 20.418-5.9658s14.394 2.5398 20.116 6.799c5.721 4.2589 9.778 10.152 11.545 16.769" stroke="#263238" stroke-linecap="round" stroke-linejoin="round" stroke-width="1.4879"/>
<path d="m520.11 151.23c-8.14-0.867-15.652-4.491-21.106-10.18-5.454-5.69-8.467-13.047-8.467-20.671" stroke="#263238" stroke-linecap="round" stroke-linejoin="round" stroke-width="1.4879"/>
<path d="m557.3 120.38c0 8.232-3.513 16.128-9.767 21.951-6.254 5.822-14.737 9.095-23.584 9.099" stroke="#263238" stroke-linecap="round" stroke-linejoin="round" stroke-width="1.4879"/>
<path d="m559.2 100.69c10.434-1.2386 17.426-0.569 18.512 2.335 2.157 5.78-20.164 18.237-49.859 27.833-29.695 9.595-55.504 12.671-57.677 6.876-1.147-3.089 4.697-8.086 14.917-13.539" stroke="#263238" stroke-linecap="round" stroke-linejoin="round" stroke-width="1.4879"/>
<path d="m379.52 79.419 3.198 6.0222 7.144 0.9681-5.171 4.6982 1.224 6.6201-6.395-3.1321-6.395 3.1321 1.224-6.6201-5.171-4.6982 7.145-0.9681 3.197-6.0222z" stroke="#263238" stroke-linecap="round" stroke-linejoin="round" stroke-width="1.4879"/>
<path d="m153.65 63.374c-4e-3 5.3543-2.291 10.488-6.358 14.276s-9.583 5.9187-15.336 5.9262c-0.704 0-1.392-0.0285-2.066-0.0854-4.187-0.3696-8.169-1.8632-11.461-4.2992s-5.753-5.7095-7.083-9.4226-1.473-7.7059-0.411-11.493c1.063-3.7872 3.285-7.2055 6.396-9.8396s6.977-4.3705 11.129-4.998c4.151-0.6276 8.409-0.1194 12.256 1.4629 3.848 1.5822 7.118 4.1704 9.414 7.4499 2.296 3.2794 3.519 7.1089 3.52 11.023v0z" stroke="#263238" stroke-linecap="round" stroke-linejoin="round" stroke-width="1.4879"/>
<path d="m150.18 67.019c3e-3 0.62-0.192 1.227-0.56 1.7439-0.368 0.517-0.893 0.9206-1.507 1.1599-0.615 0.2392-1.292 0.3033-1.946 0.184-0.654-0.1192-1.255-0.4164-1.727-0.8538-0.473-0.4375-0.795-0.9955-0.926-1.6035s-0.065-1.2384 0.189-1.8116c0.254-0.5731 0.686-1.0631 1.24-1.4079 0.553-0.3448 1.205-0.5289 1.871-0.5289 0.89 0 1.744 0.328 2.375 0.9123 0.63 0.5843 0.987 1.3774 0.991 2.2056v0z" stroke="#263238" stroke-linecap="round" stroke-linejoin="round" stroke-width="1.4879"/>
<path d="m119.96 74.963c1e-3 0.7421-0.174 1.4752-0.513 2.1471-0.338 0.6719-0.832 1.2659-1.446 1.7396-2.853-2.1915-5.05-5.0306-6.379-8.2431 0.842-0.4811 1.812-0.7327 2.799-0.7261 0.724-0.0094 1.443 0.1151 2.114 0.3663 0.672 0.2512 1.283 0.624 1.798 1.0969s0.924 1.0364 1.204 1.6578c0.279 0.6213 0.423 1.2881 0.423 1.9615z" stroke="#263238" stroke-linecap="round" stroke-linejoin="round" stroke-width="1.4879"/>
<path d="m146.81 78.138c-4.012 3.5358-9.33 5.5031-14.855 5.4954-0.704 0-1.393-0.0285-2.066-0.0854-0.123-0.5478-0.184-1.1061-0.183-1.6658 1e-3 -1.8926 0.689-3.7295 1.952-5.2128 1.263-1.4834 3.027-2.5263 5.007-2.9597s4.059-0.2319 5.9 0.5719c1.842 0.8037 3.337 2.1626 4.245 3.8564v0z" stroke="#263238" stroke-linecap="round" stroke-linejoin="round" stroke-width="1.4879"/>
<path d="m126.7 55.359c2.754 0 4.987-2.0779 4.987-4.6412 0-2.5632-2.233-4.6412-4.987-4.6412-2.755 0-4.988 2.078-4.988 4.6412 0 2.5633 2.233 4.6412 4.988 4.6412z" stroke="#263238" stroke-linecap="round" stroke-linejoin="round" stroke-width="1.4879"/>
<path d="m131.32 63.901c0 0.4252-0.135 0.8409-0.389 1.1944s-0.615 0.6291-1.037 0.7918-0.886 0.2052-1.335 0.1223c-0.448-0.0829-0.859-0.2877-1.182-0.5883-0.323-0.3007-0.543-0.6837-0.633-1.1008-0.089-0.417-0.043-0.8492 0.132-1.242s0.471-0.7286 0.851-0.9648 0.826-0.3623 1.283-0.3623c0.304 0 0.604 0.0556 0.884 0.1636 0.281 0.1081 0.535 0.2664 0.75 0.466 0.214 0.1997 0.384 0.4366 0.5 0.6975 0.117 0.2608 0.176 0.5403 0.176 0.8226z" stroke="#263238" stroke-linecap="round" stroke-linejoin="round" stroke-width="1.4879"/>
<path d="m149.57 51.586c-0.607 0.1853-1.243 0.2766-1.882 0.2705-0.835 0-1.662-0.1533-2.433-0.4511-0.772-0.2978-1.472-0.7343-2.062-1.2844-0.59-0.5502-1.057-1.2032-1.375-1.9217-0.318-0.7184-0.481-1.4883-0.479-2.2653-0.016-0.2466-0.016-0.4938 0-0.7404 3.277 1.4539 6.107 3.6523 8.231 6.3924v0z" stroke="#263238" stroke-linecap="round" stroke-linejoin="round" stroke-width="1.4879"/>
<path d="m648.39 297.8 2.341-4.898-3.794-1.936c0.139-0.862 0.165-1.737 0.076-2.605l3.886-1.766-2.065-4.997-4.162 1.111c-0.557-0.698-1.205-1.329-1.927-1.88l1.422-3.815-5.262-2.178-2.096 3.53c-0.93-0.106-1.87-0.106-2.8 0l-1.882-3.616-5.385 1.922 1.209 3.858c-0.751 0.528-1.434 1.135-2.035 1.808l-4.085-1.324-2.279 4.827 3.794 1.95c-0.14 0.862-0.166 1.737-0.077 2.606l-3.901 1.751 2.065 5.011 4.162-1.125c0.561 0.699 1.208 1.334 1.927 1.894l-1.407 3.801 5.263 2.178 2.08-3.53c0.927 0.13 1.867 0.153 2.8 0.071l1.897 3.63 5.37-1.922-1.193-3.872c0.745-0.523 1.423-1.125 2.019-1.794l4.039 1.31zm-16.003-2.734c-1.208-0.5-2.229-1.322-2.935-2.362s-1.065-2.252-1.031-3.482 0.458-2.422 1.221-3.428c0.762-1.005 1.827-1.777 3.061-2.219s2.581-0.533 3.871-0.263c1.29 0.271 2.464 0.891 3.375 1.783 0.911 0.891 1.518 2.014 1.743 3.227 0.225 1.212 0.059 2.459-0.477 3.584-0.723 1.506-2.058 2.684-3.712 3.277-1.655 0.592-3.494 0.55-5.116-0.117v0z" stroke="#263238" stroke-linecap="round" stroke-linejoin="round" stroke-width="1.4879"/>
<path d="m620.42 322.93 3.183-6.649-5.141-2.648c0.183-1.169 0.214-2.355 0.092-3.531l5.293-2.391-2.769-6.791-5.645 1.523c-0.754-0.952-1.633-1.813-2.616-2.563l1.928-5.182-7.206-3.004-2.831 4.784c-1.256-0.168-2.529-0.202-3.794-0.1l-2.57-4.912-7.313 2.62 1.637 5.239c-1.016 0.715-1.94 1.537-2.754 2.449l-5.553-1.737-3.182 6.649 5.14 2.648c-0.183 1.169-0.214 2.354-0.092 3.53l-5.293 2.392 2.815 6.791 5.645-1.509c0.759 0.949 1.637 1.809 2.616 2.563l-1.927 5.168 7.16 2.961 2.83-4.798c1.256 0.175 2.53 0.208 3.794 0.1l2.57 4.911 7.313-2.605-1.637-5.253c1.016-0.71 1.94-1.527 2.754-2.435l5.553 1.78zm-21.724-3.716c-1.642-0.681-3.03-1.8-3.989-3.216-0.959-1.415-1.445-3.063-1.396-4.736 0.048-1.672 0.628-3.294 1.667-4.659 1.039-1.366 2.49-2.414 4.169-3.012s3.512-0.719 5.265-0.347c1.753 0.371 3.348 1.218 4.584 2.433s2.056 2.744 2.358 4.394c0.301 1.649 0.071 3.345-0.664 4.872-0.485 1.014-1.18 1.929-2.046 2.693-0.866 0.763-1.885 1.361-2.999 1.757-1.114 0.397-2.301 0.585-3.494 0.555-1.192-0.031-2.366-0.28-3.455-0.734z" stroke="#263238" stroke-linecap="round" stroke-linejoin="round" stroke-width="1.4879"/>
<path d="m303.28 259.81c-2.097 3.696-4.464 7.254-7.084 10.649-13.592 17.586-33.565 30.001-56.228 34.949-22.663 4.949-46.486 2.098-67.065-8.027-2.127-1.039-4.208-2.15-6.196-3.317-1.989-1.168-3.932-2.364-5.799-3.645-2.264-1.523-4.436-3.146-6.517-4.84-0.133-0.093-0.256-0.198-0.367-0.314-13.558-11.165-23.467-25.653-28.595-41.81-5.129-16.157-5.271-33.331-0.409-49.559 4.862-16.229 14.531-30.857 27.903-42.215 13.372-11.357 29.907-18.985 47.716-22.012s36.175-1.332 52.998 4.893c16.823 6.224 31.425 16.727 42.138 30.308s17.105 29.692 18.446 46.493c1.34 16.801-2.425 33.614-10.865 48.518l-0.076-0.071z" fill="#19A89D"/>
<g fill="#fff" opacity=".6">
<path d="m303.28 259.81c-2.097 3.696-4.464 7.254-7.084 10.649l-1.866-1.424-3.213-1.58-3.381-1.651 0.566-3.802-0.183-3.431c-0.199-3.431 2.463-0.626 4.589-1.665 1.659-1.103 2.999-2.571 3.901-4.271 0 0 1.53-4.571 1.025-6.407-0.823-2.116-1.794-4.18-2.906-6.179l-5.477 7.119-4.59-0.328-4.345-2.135-0.566-5.624-2.234-1.082-0.933-3.232-12.071-3.146-1.377-2.249c-1.376-2.25-6.93-3.403-6.93-3.403l1.362-2.933 2.141-3.274c2.158-3.275 4.391 2.164 4.391 2.164l2.555 1.238 4.743-3.701 1.254-5.311 7.726 0.413c-0.151-0.718-0.033-1.464 0.334-2.111 0.368-0.648 0.963-1.159 1.686-1.448 2.57-0.94 1.438-6.136 0.459-8.058s-4.59-0.37-4.59-0.37-3.932-5.567-4.467-7.788c-0.536-2.221 7.496-1.423 10.938-3.659 3.443-2.235 2.265-6.677 0.582-6.776-1.683-0.1 3.289-10.108 12.851-7.361 2.662 0.769 4.345 0.499 5.385-0.356 7.174 12.854 10.896 27.134 10.848 41.618s-3.864 28.741-11.123 41.554z"/>
<path d="m236.37 221.3-3.274 3.83s-1.392-3.089-3.381-1.424l-3.06 2.534-2.218 5.781-3.978 2.391-2.433-1.181-2.294-1.139-2.494-1.225-2.387 4.271-1.943 3.417c0.947 1.678 2.125 3.233 3.504 4.627l4.222 6.934 5.141 2.42c2.143 0.074 4.277 0.312 6.379 0.712l3.534 1.722-1.254 7.119s-2.662 4.029-4.437 2.918l-1.79-1.096-2.907 9.368-0.122 5.154s-1.729 0.669-3.473 1.21-0.642 0.256-4.299 1.31c-3.656 1.053-3.366 1.01-6.334 1.793-2.53 0.825-4.964 1.883-7.267 3.161l0.26 4.954-6.991 0.954-3.917-1.936 0.964-3.132 0.459-4.898-0.535-3.658-1.683-3.232 4.712-3.972-1.04-2.492-2.678-4.954-5.66 2.847-2.907 1.424-6.579-2.748-0.719-3.716-2.203-6.677-2.05-4.157-3.641-4.584-0.918-3.944 2.05-3.616 1.086-1.908-3.35-4.199-0.918-2.99-5.645-4.769s1.637-0.1 1.27-2.221c-0.368-2.122 3.228-5.695 3.228-5.695 2.034 0.996 8.139 4.954 8.139 4.954l5.339 0.684s1.071 0 2.111-1.88c1.215-1.728 2.643-3.319 4.253-4.74 0 0-2.463-7.959-0.704-9.027 1.76-1.067 3.55-6.278 3.55-6.278l1.407-2.491s-3.32-1.353-3.947-2.99-8.812 0.541-8.812 0.541l-5.645 3.644-4.452 3.204-1.928 3.402s-3.932-4.399-3.947-1.936c-0.3 2.525-0.895 5.012-1.775 7.417 0 0 0.811 0.399-0.26 2.307s-2.233 1.808-4.589 2.078c-3.072 0.029-6.141-0.166-9.18-0.583 0 0-1.53 5.267-0.474 6.178l1.04 0.883s-1.637 3.83-3.258 3.033l-3.947-1.937-5.523 2.079-6.12 6.293-1.361-0.257c-3.751-23.409 2.581-47.251 17.619-66.339 15.038-19.089 37.565-31.881 62.684-35.596 0.352 1.423 0.735 2.762 0.735 2.762l-1.53 7.033-1.958 3.473-1.683 2.976-2.372 4.186 6.074 5.21-1.3 6.165-3.29 1.922-0.948 4.627 5.645 10.264 1.53 4.03c-0.945 1.928-1.41 4.031-1.362 6.15 0 0 0.689 3.844 3.703 5.367s6.976 3.317 6.976 3.317l-0.321 5.695-1.362 1.424 2.264 6.136c6.9 2.52 6.242 4.627 6.9 2.52l0.673-2.093 4.697-1.58 5.982 6.648c0.696-8e-3 1.383 0.146 1.998 0.45 0.615 0.303 1.138 0.746 1.521 1.287 1.744 2.05 4.467 0.271 1.178 4.1z"/>
<path d="m155.29 270.89c0.168 2.022-2.586 4.556-2.586 4.556l2.249 1.096 0.689 5.695-1.699 3.018c-12.033-9.892-21.211-22.432-26.696-36.475l1.224-6.036 5.4-0.712s4.835-2.99 6.977-2.192c2.141 0.797 4.1 5.694 4.1 5.694s1.53 6.606 1.331 6.478h-0.092 0.122l2.203 1.082 0.628 2.605-3.06 5.41h-4.926s-0.98-0.484-1.071 1.894c0.079 0.825 0.349 1.624 0.79 2.344 0.44 0.72 1.042 1.343 1.765 1.827l5.324-1.267 1.422-5.125 5.233-0.954s-0.75 3.146 0.474 3.744l1.239 0.613 0.734 3.758c-0.548 0.303-1 0.735-1.312 1.252-0.311 0.517-0.471 1.102-0.462 1.695z"/>
<path d="m180.59 278.95c-0.474-1.224-0.673-2.292-3.932-3.886-3.259-1.595-3.06-1.026-4.345 0.299-0.553 0.681-1.309 1.196-2.173 1.482-0.865 0.286-1.801 0.33-2.692 0.126-2.142-0.441-1.025 1.808-1.025 1.808l0.52 6.079-6.043 5.553c1.867 1.281 3.8 2.496 5.799 3.644l1.285-3.673 10.036 2.734c-2.127-0.584-0.872-3.289-0.872-3.289l-2.142-1.053s6.058-8.628 5.584-9.824z"/>
<path d="m243.81 247.34-3.289-3.089-3.764 1.096-1.53 2.848-1.147 2.05 1.53 2.847 3.06 3.46 1.744-3.104s4.849 0 7.389-2.605c2.54-2.606-3.993-3.503-3.993-3.503z"/>
<path d="m234.14 233.4 6.12 2.989 0.244-1.338c0.319-1.072 0.883-2.068 1.653-2.918l-4.682-4.613-3.335 5.88z"/>
<path d="m232.06 299.68-1.76-2.406-2.05-0.997h-6.257l-3.565 6.293s-3.411-0.427-7.894-0.797-3.381 1.352-3.381 1.352l-1.163 3.958c11.31 1.296 22.777 0.723 33.872-1.694-1.29-0.837-2.628-1.607-4.008-2.306l-3.794-3.403z"/>
</g>
<path d="m303.28 259.81c-2.097 3.696-4.464 7.254-7.084 10.649-13.592 17.586-33.565 30.001-56.228 34.949-22.663 4.949-46.486 2.098-67.065-8.027-2.127-1.039-4.208-2.15-6.196-3.317-1.989-1.168-3.932-2.364-5.799-3.645-2.264-1.523-4.436-3.146-6.517-4.84-0.133-0.093-0.256-0.198-0.367-0.314v0c-13.558-11.165-23.467-25.653-28.595-41.81-5.129-16.157-5.271-33.331-0.409-49.559 4.862-16.229 14.531-30.857 27.903-42.215 13.372-11.357 29.907-18.985 47.716-22.012s36.175-1.332 52.998 4.893c16.823 6.224 31.425 16.727 42.138 30.308s17.105 29.692 18.446 46.493c1.34 16.801-2.425 33.614-10.865 48.518l-0.076-0.071z" stroke="#263238" stroke-linecap="round" stroke-linejoin="round" stroke-width="1.4879"/>
<path d="m239.86 305.39c-11.095 2.417-22.562 2.99-33.872 1.694l1.163-3.958s-1.102-1.722 3.381-1.352 7.894 0.797 7.894 0.797l3.565-6.293h6.257l2.05 0.997 1.76 2.406 3.794 3.403c1.38 0.699 2.718 1.469 4.008 2.306z" stroke="#263238" stroke-linecap="round" stroke-linejoin="round" stroke-width="1.4879"/>
<path d="m303.61 176.66c-1.04 0.854-2.723 1.124-5.385 0.356-9.562-2.748-14.519 7.246-12.851 7.36s2.846 4.613-0.581 6.777-11.475 1.423-10.939 3.659c0.535 2.235 4.467 7.787 4.467 7.787s3.519-1.537 4.513 0.37c0.995 1.908 2.127 7.119-0.443 8.058-0.723 0.289-1.318 0.8-1.686 1.448-0.367 0.648-0.485 1.393-0.334 2.112l-7.726-0.413-1.254 5.31-4.743 3.702-2.555-1.239s-2.233-5.438-4.391-2.164l-2.141 3.274-1.362 2.933s5.554 1.153 6.93 3.403l1.377 2.249 12.071 3.147 0.933 3.231 2.234 1.082 0.566 5.624 4.498 2.192 4.59 0.328 5.477-7.119c1.112 1.999 2.083 4.063 2.906 6.179 0.536 1.837-1.025 6.407-1.025 6.407-0.902 1.701-2.242 3.168-3.901 4.271-2.188 1.039-4.865-1.766-4.589 1.665l0.183 3.432-0.566 3.801 3.381 1.651 3.213 1.581 1.866 1.423" stroke="#263238" stroke-linecap="round" stroke-linejoin="round" stroke-width="1.4879"/>
<path d="m122.44 231.17 1.361 0.257 6.12-6.293 5.523-2.079 3.947 1.937c1.622 0.797 3.259-3.033 3.259-3.033l-1.041-0.882c-1.055-0.912 0.475-6.179 0.475-6.179 3.038 0.417 6.108 0.612 9.179 0.583 2.417-0.27 3.565-0.185 4.59-2.078 1.025-1.894 0.26-2.306 0.26-2.306 0.879-2.406 1.474-4.893 1.774-7.418 0-2.463 3.948 1.936 3.948 1.936l1.927-3.402 4.314-3.189 5.646-3.645s8.185-2.192 8.812-0.541c0.627 1.652 3.947 2.99 3.947 2.99l-1.408 2.491s-1.805 5.182-3.549 6.279c-1.744 1.096 0.704 9.026 0.704 9.026-1.611 1.421-3.038 3.012-4.253 4.741-1.071 1.907-2.111 1.879-2.111 1.879l-5.34-0.683s-6.119-3.958-8.139-4.955c0 0-3.595 3.574-3.228 5.695s-1.27 2.221-1.27 2.221l5.646 4.769 0.918 2.99 3.35 4.2-1.086 1.907-2.05 3.617 0.918 3.943 3.641 4.584 2.065 4.143 2.234 6.706 0.719 3.716 6.578 2.747 2.907-1.423 5.661-2.848 2.677 4.955 1.04 2.491-4.712 3.972 1.683 3.232 0.536 3.659-0.459 4.897-0.964 3.133 3.916 1.936 6.992-0.94-0.26-4.969c2.302-1.277 4.737-2.336 7.267-3.16 2.968-0.783 2.677-0.74 6.334-1.794 3.656-1.053 2.539-0.769 4.299-1.31 1.759-0.541 3.472-1.21 3.472-1.21l0.123-5.154 2.907-9.367 1.79 1.096c1.774 1.11 4.436-2.919 4.436-2.919l1.255-7.118-3.611-1.751c-2.102-0.4-4.235-0.638-6.379-0.712l-5.034-2.463-4.222-6.933c-1.379-1.395-2.557-2.95-3.504-4.627l1.943-3.417 2.387-4.271 2.494 1.224 2.294 1.139 2.433 1.182 3.978-2.392 2.218-5.78 3.06-2.534c1.989-1.68 3.381 1.423 3.381 1.423l3.274-3.829c3.289-3.83 0.566-2.05-1.117-4.015-0.383-0.541-0.906-0.984-1.521-1.288-0.614-0.303-1.302-0.458-1.998-0.449l-5.982-6.649-4.758 1.68-0.673 2.093c-0.658 2.107 0 0-6.899-2.52l-2.265-6.136 1.362-1.424 0.321-5.694s-3.962-1.808-6.976-3.317c-3.014-1.51-3.702-5.368-3.702-5.368-0.049-2.119 0.417-4.221 1.361-6.15l-1.53-4.029-5.645-10.265 0.948-4.627 3.29-1.922 1.3-6.164-5.905-5.211 2.371-4.186 1.683-2.975 1.958-3.474 1.53-7.033s-0.382-1.31-0.734-2.762" stroke="#263238" stroke-linecap="round" stroke-linejoin="round" stroke-width="1.4879"/>
<path d="m154.46 285.57c-0.118-0.127-0.252-0.241-0.397-0.341v0l1.698-3.019-0.689-5.694-2.249-1.097s2.754-2.534 2.586-4.555c-0.03-0.604 0.115-1.203 0.419-1.736 0.304-0.534 0.756-0.982 1.31-1.297l-0.735-3.758-1.239-0.613c-1.224-0.597-0.474-3.744-0.474-3.744l-5.232 0.954-1.423 5.125-5.324 1.267c-0.722-0.484-1.324-1.107-1.765-1.827-0.441-0.719-0.71-1.519-0.79-2.344 0.092-2.378 1.071-1.893 1.071-1.893h4.926l3.06-5.41-0.627-2.606-2.203-1.082" stroke="#263238" stroke-linecap="round" stroke-linejoin="round" stroke-width="1.4879"/>
<path d="m146.25 251.9c0.245 0.128-1.331-6.478-1.331-6.478s-1.958-4.826-4.1-5.694c-2.142-0.869-6.977 2.192-6.977 2.192l-5.4 0.712-1.224 6.036" stroke="#263238" stroke-linecap="round" stroke-linejoin="round" stroke-width="1.4879"/>
<path d="m167.99 290.38-1.285 3.673c-2.04-1.157-3.973-2.372-5.799-3.644l6.043-5.553-0.52-6.079s-1.117-2.249 1.025-1.808c0.891 0.204 1.827 0.16 2.692-0.126 0.864-0.286 1.62-0.801 2.173-1.482 1.255-1.325 1.102-1.894 4.345-0.299 3.243 1.594 3.458 2.662 3.932 3.886 0.474 1.225-5.584 9.866-5.584 9.866l2.142 1.054s-1.255 2.705 0.872 3.289l-10.036-2.777z" stroke="#263238" stroke-linecap="round" stroke-linejoin="round" stroke-width="1.4879"/>
<path d="m236.76 245.35 3.764-1.096 3.289 3.089s6.502 0.783 3.962 3.417c-2.539 2.634-7.389 2.606-7.389 2.606l-1.775 3.103-3.059-3.459-1.53-2.848 1.147-2.05 1.591-2.762z" stroke="#263238" stroke-linecap="round" stroke-linejoin="round" stroke-width="1.4879"/>
<path d="m242.16 232.14c-0.77 0.85-1.334 1.846-1.653 2.918l-0.244 1.338-6.12-2.989 3.335-5.88 4.682 4.613z" stroke="#263238" stroke-linecap="round" stroke-linejoin="round" stroke-width="1.4879"/>
<path d="m574.16 567.96c-8.2 6.349-71.37 46.696-161.51 40.19-4.849-38.183-23.346-195.04-2.31-219.64 0 0 51.037-22.651 98.051-13.141 47.013 9.51 65.311 18.622 68.661 26.509 2.54 5.965-1.086 117.04-2.891 166.09z" fill="#263238"/>
<path d="m506.83 392.12c-27.079 21.825-61.96 17.212-61.195 0.455 0.122-2.619 3.136-5.865 3.136-5.865l-1.056-1.509-4.589-6.45c-3.351-4.826-7.543-10.891-10.465-15.304-2.448-3.759 58.58-38.696 58.58-18.608 0 28.303 14.931 33.628 14.931 33.628 5.63 2.107 10.878 5.438 0.658 13.653z" fill="#fff" stroke="#263238" stroke-linecap="round" stroke-linejoin="round" stroke-width="1.4879"/>
<path d="m523.95 435.34s-5.462 17.425-2.876 22.423" stroke="#fff" stroke-linecap="round" stroke-linejoin="round" stroke-width="1.4879"/>
<path d="m517.57 384.74c0 16.814-53.898 33.286-69.686 16.415" stroke="#fff" stroke-linecap="round" stroke-linejoin="round" stroke-width="1.4879"/>
<path d="m473.23 365.34s-3.611 12.671-20.439 22.565c-0.803-1.282-2.099-2.233-3.626-2.662-0.507-0.077-1.023-0.077-1.53 0l-4.59-6.449c8.705-5.837 30.185-13.454 30.185-13.454z" fill="#263238"/>
<path d="m480.79 349.76s-0.184 12.5-3.06 15.048c-21.342 19.049-42.21 20.558-45.652 15.533-23.178-33.827-17.701-42.711-20.057-48.505-4.177-10.165-9.302-26.765-7.037-36.816 5.048-22.452 50.486-39.864 74.413-17.284 11.475 10.806 15.1 34.254 12.683 53.787" fill="#fff"/>
<path d="m480.79 349.76s-0.184 12.5-3.06 15.048c-21.342 19.049-42.21 20.558-45.652 15.533-23.178-33.827-17.701-42.711-20.057-48.505-4.177-10.165-9.302-26.765-7.037-36.816 5.048-22.452 50.486-39.864 74.413-17.284 11.475 10.806 15.1 34.254 12.683 53.787" stroke="#263238" stroke-linecap="round" stroke-linejoin="round" stroke-width="1.4879"/>
<path d="m414.94 321.39s-6.38-2.662-7.756 0.513" stroke="#263238" stroke-linecap="round" stroke-linejoin="round" stroke-width="1.4879"/>
<path d="m430.41 321.59s13.265-5.168 19.231 1.11" stroke="#263238" stroke-linecap="round" stroke-linejoin="round" stroke-width="1.4879"/>
<path d="m445.14 330.34c0.214 1.851-0.749 3.46-2.172 3.616-1.423 0.157-2.739-1.253-2.953-3.103-0.214-1.851 0.75-3.474 2.173-3.617 1.422-0.142 2.677 1.253 2.952 3.104z" fill="#263238"/>
<path d="m419.13 330.9c0.23 1.851-0.75 3.474-2.172 3.616-1.423 0.143-2.739-1.238-2.953-3.089s0.75-3.474 2.172-3.616c1.423-0.142 2.708 1.239 2.953 3.089z" fill="#263238"/>
<path d="m419.78 326.03c1.851 2.776 0.841 7.517-1.607 14.024-2.448 6.506-0.29 8.855 9.103 9.51" fill="#fff"/>
<path d="m419.78 326.03c1.851 2.776 0.841 7.517-1.607 14.024-2.448 6.506-0.29 8.855 9.103 9.51" stroke="#263238" stroke-linecap="round" stroke-linejoin="round" stroke-width="1.4879"/>
<path d="m427.27 360.82s12.239-1.039 17.839-3.901" stroke="#263238" stroke-linecap="round" stroke-linejoin="round" stroke-width="1.4879"/>
<path d="m504.81 296.27c0-8.456-8.965-25.811-24.693-27.761-9.041-8.799-21.923-12.031-37.558-8.685-36.136 7.717-47.136 40.917-48.712 46.412-0.153 0.513-0.23 0.797-0.23 0.797l9.669-2.277-4.161 7.559 5.064 3.118-1.163 1.196 5.875 5.268-1.836-9.624c1.132-6.208 8.812-14.892 8.812-14.892-2.803 3.381-4.549 7.415-5.048 11.66 3.059-7.389 21.418-14.237 21.418-14.237-5.951 4.499-9.179 13.297-9.179 13.297 5.66-6.492 18.925-10.692 27.415-12.927 2.861 6.421 7.405 13.127 13.892 16.842 6.119 3.503 5.905 10.735 5.905 10.735 6.584 4.259 11.435 10.458 13.769 17.597l7.405 9.424s13.356-15.247 13.356-53.502z" fill="#263238"/>
<path d="m473.64 325.18c-2.478-4.94 6.517-18.323 12.897-16.671 3.58 0.939 8.261 7.019 9.179 13.397s-3.932 18.507-9.103 21.141c-3.289 1.709-5.997-2.947-5.997-2.947" fill="#fff"/>
<path d="m473.64 325.18c-2.478-4.94 6.517-18.323 12.897-16.671 3.58 0.939 8.261 7.019 9.179 13.397s-3.932 18.507-9.103 21.141c-3.289 1.709-5.997-2.947-5.997-2.947" stroke="#263238" stroke-linecap="round" stroke-linejoin="round" stroke-width="1.4879"/>
<path d="m83.339 566.82 172.86-37.614 360.56 38.753-92.834 59.082-440.59-60.221z" fill="#fff"/>
<path d="m83.339 566.82 172.86-37.614 360.56 38.753" fill="#fff"/>
<path d="m83.339 566.82 172.86-37.614 360.56 38.753" stroke="#263238" stroke-linecap="round" stroke-linejoin="round" stroke-width="1.4879"/>
<path d="m232.93 574.36 69.977-28.787 88.474 4.257-39.349 31.307-119.1-6.777z" fill="#fff" stroke="#263238" stroke-linecap="round" stroke-linejoin="round" stroke-width="1.4879"/>
<path d="m413.75 387.08c-22.444 8.542-27.278 27.747-65.418 103.64 0 0-16.936 3.232-26.008 22.38-9.073 19.149 6.119 34.268 23.606 33.756 0 0 7.022 5.694 21.418 5.111 14.397-0.584 78.025-91.187 78.025-91.187l-31.623-73.704z" fill="#263238"/>
<path d="m355.02 495.18c10.036 8.314 15.804 20.515 12.744 34.04" stroke="#fff" stroke-linecap="round" stroke-linejoin="round" stroke-width="1.4879"/>
<path d="m364.7 499.18s12.331 2.506 14.243 17.199" stroke="#fff" stroke-linecap="round" stroke-linejoin="round" stroke-width="1.4879"/>
<path d="m400.78 456.18c-5.826-13.376-7.839-27.927-5.844-42.24" stroke="#fff" stroke-linecap="round" stroke-linejoin="round" stroke-width="1.4879"/>
<path d="m399.03 436.82c-0.933 5.98 5.707 37.813 5.661 71.284" stroke="#fff" stroke-linecap="round" stroke-linejoin="round" stroke-width="1.4879"/>
<path d="m566.8 393.37c28.073 13.126 31.408 53.516 4.926 101.81-18.71 34.083-44.535 84.41-60.874 87.784s-32.281-6.093-32.281-6.093-13.769-0.598-17.93-9.71c-11.382-24.9 17.548-56.363 28.869-48.832 0 0 36.35-73.562 42.975-78.203" fill="#263238"/>
<path d="m458.04 552.02c-3.718-17.184 25.35-37.457 31.47-33.699 0 0 21.587 1.125 24.815 15.02" stroke="#fff" stroke-linecap="round" stroke-linejoin="round" stroke-width="1.4879"/>
<path d="m537.12 555.68c12.637-20.743 34.606-60.506 34.606-60.506" stroke="#fff" stroke-linecap="round" stroke-linejoin="round" stroke-width="1.4879"/>
<path d="m489.51 518.33s15.131-8.428 26.436-0.456" stroke="#fff" stroke-linecap="round" stroke-linejoin="round" stroke-width="1.4879"/>
<path d="m494.68 508.09s8.353-17.084 16.829-32.745c8.475-15.66 27.874-38.852 35.937-39.977" stroke="#fff" stroke-linecap="round" stroke-linejoin="round" stroke-width="1.4879"/>
<path d="m335.24 538.8c-1.817-0.083-3.592-0.535-5.202-1.324-26.008-12.628-46.233-33.5-58.411-48.477-4.734-5.724-9.092-11.71-13.05-17.924l6.242-24.886s5.875 14.237 29.481 28.232 51.649 18.607 60.721 32.744c8.032 12.315-6.119 32.247-19.781 31.635z" fill="#fff"/>
<path d="m335.24 538.8c-0.29-1.801-0.804-3.563-1.53-5.254-5.462-12.727-38.507-38.026-38.507-38.026-7.864-0.228-16.508-3.275-23.545-6.521-4.745-5.723-9.113-11.709-13.081-17.924l6.242-24.886s5.875 14.237 29.481 28.232 51.649 18.607 60.721 32.744c8.032 12.315-6.119 32.247-19.781 31.635z" fill="#19A89D" opacity=".4"/>
<path d="m335.24 538.8c-1.817-0.083-3.592-0.535-5.202-1.324-26.008-12.628-46.233-33.5-58.411-48.477-4.734-5.724-9.092-11.71-13.05-17.924l6.242-24.886s5.875 14.237 29.481 28.232 51.649 18.607 60.721 32.744c8.032 12.315-6.119 32.247-19.781 31.635z" stroke="#263238" stroke-linecap="round" stroke-linejoin="round" stroke-width="1.4879"/>
<path d="m276.33 469.56s-3.228 13.269-11.734 10.293c-4.59-1.609-13.432-14.365-15.1-20.8l26.834 10.507z" fill="#fff" stroke="#263238" stroke-linecap="round" stroke-linejoin="round" stroke-width="1.4879"/>
<path d="m238.84 387.86 6.945-3.332s19.629 0.157 31.807 9.368c11.061 8.372 16.676 21.484 16.676 21.484s42.974-22.082 86.867-9.411l17.899 92.838-82.292 5.012-51.359-45.401-26.543-70.558z" fill="#fff" stroke="#263238" stroke-linecap="round" stroke-linejoin="round" stroke-width="1.4879"/>
<path d="m404.69 502.52s-9.654-0.27-22.566 0.128c-19.521 0.57-46.493 2.62-58.824 9.297l-0.582-0.185-11.29-3.673-0.23-0.313c-2.08-2.848-18.863-25.271-42.836-34.397l-33.903-88.154s35.188 1.424 54.418 31.008l9.654 3.246s57.447-15.831 89.605-10.137l16.554 93.18z" fill="#19A89D"/>
<path d="m311.2 507.79c-2.08-2.848-18.863-25.271-42.836-34.396l-33.903-88.155s35.188 1.424 54.418 31.008l22.321 91.543z" fill="#000" fill-opacity=".7" opacity=".3"/>
<path d="m382.13 502.65c-19.521 0.57-46.493 2.62-58.824 9.297l-0.582-0.185-22.55-89.094s18.45-3.858 24.126-1.908c-0.015 0.029 37.498 25.783 57.83 81.89z" fill="#000" fill-opacity=".7" opacity=".3"/>
<path d="m404.69 502.52s-9.654-0.27-22.566 0.128c-19.521 0.57-46.493 2.62-58.824 9.297l-0.582-0.185-11.29-3.673-0.23-0.313c-2.08-2.848-18.863-25.271-42.836-34.397l-33.903-88.154s35.188 1.424 54.418 31.008l9.654 3.246s57.447-15.831 89.605-10.137l16.554 93.18z" stroke="#263238" stroke-linecap="round" stroke-linejoin="round" stroke-width="1.4879"/>
<path d="m298.56 419.49 22.137 85.464" stroke="#263238" stroke-linecap="round" stroke-linejoin="round" stroke-width="1.4879"/>
<path d="m311.43 508.1-21.51-85.407" stroke="#263238" stroke-linecap="round" stroke-linejoin="round" stroke-width="1.4879"/>
<path d="m256.78 471.14c-4.911-1.267-14.809-28.73-10.281-40.56 0 0 5.386-8.699 7.65-9.297 3.427-0.925 17.257-0.655 16.584 1.509-1.53 5.011-12.147 4.926-12.147 4.926l-3.443 5.866 0.138 3.231s5.003-3.388 6.839-3.288c0.948 0 5.844 2.277 9.73 4.185 3.32 1.637 5.354 2.534 4.589 4.015-2.463 4.926-12.942 1.424-12.942 1.424l-3.948 5.538s3.81 0.612 5.477 0.783c1.668 0.171 15.514 8.755 15.1 9.823-1.637 4.186-14.763-0.341-14.763-0.341l-2.325 1.808s9.668 2.32 10.709 2.662c1.53 0.527 7.42 4.741 7.328 5.225-0.704 3.701-8.827 0.982-8.827 0.982l-7.114-0.27c-1.084 0.889-2.388 1.515-3.795 1.822" fill="#fff"/>
<path d="m256.78 471.14c-4.911-1.267-14.809-28.73-10.281-40.56 0 0 5.386-8.699 7.65-9.297 3.427-0.925 17.257-0.655 16.584 1.509-1.53 5.011-12.147 4.926-12.147 4.926l-3.443 5.866 0.138 3.231s5.003-3.388 6.839-3.288c0.948 0 5.844 2.277 9.73 4.185 3.32 1.637 5.354 2.534 4.589 4.015-2.463 4.926-12.942 1.424-12.942 1.424l-3.948 5.538s3.81 0.612 5.477 0.783c1.668 0.171 15.514 8.755 15.1 9.823-1.637 4.186-14.763-0.341-14.763-0.341l-2.325 1.808s9.668 2.32 10.709 2.662c1.53 0.527 7.42 4.741 7.328 5.225-0.704 3.701-8.827 0.982-8.827 0.982l-7.114-0.27c-1.084 0.889-2.388 1.515-3.795 1.822" stroke="#263238" stroke-linecap="round" stroke-linejoin="round" stroke-width="1.4879"/>
<path d="m255.22 436.82s-4.59 3.588-5.768 4.627-0.887 4.342-0.887 4.342" stroke="#263238" stroke-linecap="round" stroke-linejoin="round" stroke-width="1.4879"/>
<path d="m251.9 453.08c0 3.616 2.601 5.808 3.794 6.976 1.193 1.167-1.912 4.342 1.53 6.62" stroke="#263238" stroke-linecap="round" stroke-linejoin="round" stroke-width="1.4879"/>
<path d="m478.51 567.7c-9.715 2.463-20.271-13.425-33.153-30.765-8.506-11.39-18.022-23.534-28.961-31.321-0.872-0.613-1.759-1.211-2.646-1.78l6.395-29.897c13.279 6.477 21.51 16.856 35.294 27.519 22.184 17.184 41.843 27.734 47.289 35.336 5.446 7.603-7.573 26.68-24.218 30.908z" fill="#fff"/>
<path d="m445.36 536.92c-8.506-11.389-18.022-23.533-28.96-31.321 1.441 0.069 2.882-0.135 4.237-0.598 0 0 17.288 13.056 24.723 31.919z" fill="#19A89D" opacity=".4"/>
<path d="m478.51 567.7c-9.715 2.463-20.271-13.425-33.153-30.765-8.506-11.39-18.022-23.534-28.961-31.321-0.872-0.613-1.759-1.211-2.646-1.78l6.395-29.897c13.279 6.477 21.51 16.856 35.294 27.519 22.184 17.184 41.843 27.734 47.289 35.336 5.446 7.603-7.573 26.68-24.218 30.908z" stroke="#263238" stroke-linecap="round" stroke-linejoin="round" stroke-width="1.4879"/>
<path d="m423.72 502.65c-0.665 1.106-1.76 1.931-3.06 2.307-0.346 0.126-0.698 0.235-1.056 0.327h-0.29c-10.266 2.492-33.367-2.691-33.367-2.691s-15.131-6.691-16.049-8.271c-0.639-1.252-1.206-2.535-1.698-3.844l-0.413-1.125s-5.446-2.847-6.119-5.068c-0.674-2.221-1.821-2.848 1.529-3.246 3.351-0.399 21.419 0 21.419 0l-19.659-7.46s-13.02-6.108-14.228-8.258c-1.209-2.149-2.723-3.573 3.932-2.719s21.189 4.784 21.189 4.784l11.458 2.263-11.382-4.513s-22.397-2.52-18.16-8.997h12.714c7.202 0.296 14.366 1.143 21.418 2.534 3.702 1.053 28.181 15.205 28.181 15.205" fill="#fff"/>
<path d="m419.29 505.34c-10.265 2.491-33.367-2.691-33.367-2.691s-15.13-6.691-16.048-8.271c-0.64-1.252-1.207-2.536-1.698-3.844l18.572 1.893c-0.649 1.089-0.99 2.314-0.99 3.559 0 1.246 0.341 2.471 0.99 3.56 2.066 3.459 25.595 6.961 32.541 5.794z" fill="#19A89D" opacity=".4"/>
<path d="m423.72 502.65c-0.665 1.106-1.76 1.931-3.06 2.307-0.346 0.126-0.698 0.235-1.056 0.327h-0.29c-10.266 2.492-33.367-2.691-33.367-2.691s-15.131-6.691-16.049-8.271c-0.639-1.252-1.206-2.535-1.698-3.844l-0.413-1.125s-5.446-2.847-6.119-5.068c-0.674-2.221-1.821-2.848 1.529-3.246 3.351-0.399 21.419 0 21.419 0l-19.659-7.46s-13.02-6.108-14.228-8.258c-1.209-2.149-2.723-3.573 3.932-2.719s21.189 4.784 21.189 4.784l11.458 2.263-11.382-4.513s-22.397-2.52-18.16-8.997h12.714c7.202 0.296 14.366 1.143 21.418 2.534 3.702 1.053 28.181 15.205 28.181 15.205" stroke="#263238" stroke-linecap="round" stroke-linejoin="round" stroke-width="1.4879"/>
<path d="m367.76 489.41 22.352 3.061" stroke="#263238" stroke-linecap="round" stroke-linejoin="round" stroke-width="1.4879"/>
<path d="m144.95 553.11 56.024 15.66 102.5-21.768s-62.603-16.543-63.185-16.13c-0.581 0.413-95.342 22.238-95.342 22.238z" fill="#19A89D"/>
<path d="m144.95 553.11 56.024 15.66 102.5-21.768s-62.603-16.543-63.185-16.13c-0.581 0.413-95.342 22.238-95.342 22.238z" fill="#000" fill-opacity=".7" opacity=".3"/>
<path d="m144.95 553.11 56.024 15.66 102.5-21.768s-62.603-16.543-63.185-16.13c-0.581 0.413-95.342 22.238-95.342 22.238z" stroke="#263238" stroke-linecap="round" stroke-linejoin="round" stroke-width="1.4879"/>
<path d="m145.76 534.74c-3.932 0.256-4.911 13.44-0.811 18.366l90.509-17.483 7.251-15.974-96.949 15.091z" fill="#19A89D"/>
<path d="m145.76 534.74c-3.932 0.256-4.911 13.44-0.811 18.366l90.509-17.483 7.251-15.974-96.949 15.091z" fill="#000" fill-opacity=".7" opacity=".3"/>
<path d="m145.76 534.74c-3.932 0.256-4.911 13.44-0.811 18.366l90.509-17.483 7.251-15.974-96.949 15.091z" stroke="#263238" stroke-linecap="round" stroke-linejoin="round" stroke-width="1.4879"/>
<path d="m299.08 534.56s-1.347 6.933-0.474 11.204l-97.745 20.587-51.527-14.123s-5.354-8.813-0.688-15.661l94.149-14.877 56.285 12.87z" fill="#fff" stroke="#263238" stroke-linecap="round" stroke-linejoin="round" stroke-width="1.4879"/>
<path d="m145.76 534.74 96.949-15.091 60.201 14.194-101.25 18.779-55.902-17.882z" fill="#19A89D" stroke="#263238" stroke-linecap="round" stroke-linejoin="round" stroke-width="1.4879"/>
<path d="m149.2 543.17 51.266 14.209 83.914-15.718" stroke="#263238" stroke-linecap="round" stroke-linejoin="round" stroke-width="1.4879"/>
<path d="m298.33 543.11-90.233 17.91" stroke="#263238" stroke-linecap="round" stroke-linejoin="round" stroke-width="1.4879"/>
<path d="m150.41 548.76c0.78 0.072 38.645 10.92 38.645 10.92" stroke="#263238" stroke-linecap="round" stroke-linejoin="round" stroke-width="1.4879"/>
<path d="m290.96 539.82 7.175-1.082" stroke="#263238" stroke-linecap="round" stroke-linejoin="round" stroke-width="1.4879"/>
<path d="m198.8 562.32-3.81-0.797" stroke="#263238" stroke-linecap="round" stroke-linejoin="round" stroke-width="1.4879"/>
<path d="m148.65 536.56c2.006 2.151 3.167 4.873 3.292 7.719 0.125 2.845-0.793 5.646-2.604 7.942-1.676-2.29-2.629-4.971-2.751-7.739-0.121-2.768 0.593-5.512 2.063-7.922z" fill="#263238"/>
<path d="m148.65 536.56c2.006 2.151 3.167 4.873 3.292 7.719 0.125 2.845-0.793 5.646-2.604 7.942-1.676-2.29-2.629-4.971-2.751-7.739-0.121-2.768 0.593-5.512 2.063-7.922z" fill="#fff" fill-opacity=".7" opacity=".3"/>
<path d="m148.65 536.56c2.006 2.151 3.167 4.873 3.292 7.719 0.125 2.845-0.793 5.646-2.604 7.942-1.676-2.29-2.629-4.971-2.751-7.739-0.121-2.768 0.593-5.512 2.063-7.922z" stroke="#263238" stroke-linecap="round" stroke-linejoin="round" stroke-width="1.4879"/>
<path d="m358.05 557.38 97.836 3.73-9.531 31.335-120.36-4.271 32.051-30.794z" fill="#fff"/>
<path d="m358.05 557.38 97.836 3.73-9.531 31.335-120.36-4.271 32.051-30.794z" fill="#19A89D" opacity=".4"/>
<path d="m358.05 557.38 97.836 3.73-9.531 31.335-120.36-4.271 32.051-30.794z" stroke="#263238" stroke-linecap="round" stroke-linejoin="round" stroke-width="1.4879"/>
</svg>
