<?xml version="1.0" encoding="UTF-8"?>
<svg fill="none" viewBox="0 0 61 61" xmlns="http://www.w3.org/2000/svg">
<path d="m52.062 7.2346h-43.125c-1.0371 0-1.875 0.83789-1.875 1.875v43.125c0 1.0371 0.83789 1.875 1.875 1.875h43.125c1.0371 0 1.875-0.8379 1.875-1.875v-43.125c0-1.0371-0.8379-1.875-1.875-1.875zm-5.4141 13.682h-3.7441c-2.9355 0-3.5039 1.3945-3.5039 3.4453v4.5176h7.0078l-0.9141 7.0722h-6.0937v18.158h-7.3066v-18.152h-6.1114v-7.0781h6.1114v-5.2149c0-6.0527 3.6972-9.3516 9.0996-9.3516 2.5898 0 4.8105 0.1934 5.4609 0.2813v6.3223h-0.0059z" fill="#fff"/>
</svg>
