<?xml version="1.0" encoding="UTF-8"?>
<svg fill="none" viewBox="0 0 600 601" xmlns="http://www.w3.org/2000/svg">
<mask id="a" x="0" y="0" width="600" height="601" style="mask-type:alpha" maskUnits="userSpaceOnUse">
<path d="m600 0.67212h-600v600h600v-600z" fill="#000"/>
</mask>
<g mask="url(#a)">
<path d="m335.58 376.53c-0.02-0.41-0.264-0.667-0.563-0.783 1.615-4.035 0.136-8.896-4.755-11.674-5.239-2.976-12.322-2.583-18.115-2.674-4.926-0.076-9.855 0.057-14.772 0.376-4.667 0.304-9.251 0.964-13.935 0.968-2.912 2e-3 -5.866 0.259-8.705 0.925-5.668 1.329-10.696 4.768-10.792 11.104-0.029 1.921 0.394 3.459 1.145 4.7-0.036 0.069-0.077 0.128-0.095 0.215-1.098 5.163-0.467 10.281 0.021 15.484l1.553 16.6c0.529 5.644 0.869 11.308 1.527 16.941 0.541 4.634-0.628 12.407 4.433 14.973 2.045 1.038 4.496 0.896 6.721 1.109 2.487 0.239 4.967 0.534 7.46 0.721 5.734 0.43 11.649 0.838 17.398 0.567 5.593-0.262 11.17-0.879 16.686-1.848 2.769-0.484 5.522-1.058 8.256-1.719 3.936-0.951 5.604-2.356 5.488-6.617-0.189-6.921 0.673-13.951 0.965-20.887 0.537-12.818 0.676-25.661 0.079-38.481z" fill="#000"/>
<path d="m331.05 438.79c-1.852 1.222-3.738 2.617-6.483 3.084-2.226 0.378-4.464 0.686-6.696 1.031-5.043 0.782-10.132 1.268-15.231 1.454-5.309 0.194-10.627 0.017-15.917-0.455-2.706-0.242-5.405-0.561-8.094-0.946-2.495-0.355-5.919-0.488-7.288-3.079-1.821-3.45-1.171-8.445-1.583-12.213-0.577-5.286-0.897-10.598-1.394-15.894l-1.39-14.853c-0.489-5.227-1.293-10.5-0.424-15.71 4.827 4.229 15.192 3.084 20.828 3.16 7.392 0.099 14.784-0.068 22.162-0.495 6.245-0.362 13.647-0.09 19.551-2.479 2.07-0.839 3.656-2.088 4.756-3.556-0.728 0.971 0.219 5.853 0.255 7.162 0.072 2.654 0.121 5.308 0.146 7.961 0.049 5.304 1e-3 10.609-0.142 15.912-0.206 7.576 0.16 27.792-3.056 29.916z" fill="#FEFEFE"/>
<path d="m332.69 435.08c-17.003 3.79-36.939 6.414-48.761-9.406-8.92-11.939-9.209-27.021-8.108-41.398-3.6-0.307-7.036-1.106-9.278-3.069-0.87 5.209-0.066 10.482 0.424 15.71l1.39 14.853c0.496 5.296 0.815 10.608 1.392 15.894 0.412 3.768-0.238 8.763 1.584 12.213 1.369 2.591 4.793 2.724 7.287 3.079 2.69 0.385 5.39 0.704 8.096 0.945 5.289 0.473 10.607 0.649 15.915 0.456 5.101-0.187 10.191-0.672 15.233-1.454 2.232-0.347 4.468-0.653 6.694-1.031 2.745-0.467 4.632-1.862 6.483-3.084 0.708-0.468 1.245-1.814 1.649-3.708z" fill="#19A89D"/>
<path d="m331.98 377.49c-4.47 4.494-13.047 3.957-18.903 4.364-12.089 0.839-24.235 0.986-36.34 0.398-3.002-0.147-6.891-0.034-9.182-2.372-2.514-2.567-2.215-6.9-0.349-9.675 2.586-3.844 6.864-5.129 11.272-5.463 14.357-1.085 29.018-2.584 43.393-1.127 6.169 0.626 17.489 6.454 10.109 13.875z" fill="#19A89D"/>
<path d="m386.53 222.01c9.991-8.112 8.342-22.729-3.254-28.426-6.124-3.01-13.635-2.154-18.886 2.223-2.231 1.86-3.968 4.299-4.908 7.054-0.489 1.429-0.76 2.931-0.809 4.441-0.085 2.674 0.59 5.683 2.731 7.52 1.973 1.694 4.879 2.084 7.089 0.606 2.903-1.941 2.493-5.738 3.47-8.665 0.928-2.781 4.309-2.835 6.642-1.846 1.625 0.69 2.522 2.29 2.65 4.007 0.147 1.962-0.468 4.148-1.522 5.799-4.327 6.772-14.057 6.781-19.216 12.73-2.656 3.064-4.122 7.885-1.534 11.45 2.899 3.996 7.498 2.423 8.989-1.708 0.917-2.541 1.099-4.685 3.194-6.705 1.765-1.704 4.141-2.729 6.352-3.67 3.186-1.357 6.288-2.597 9.012-4.81z" fill="#000"/>
<path d="m367.95 231.65c-0.727 1.255-0.973 2.556-1.387 3.928-0.494 3.976-5.252 6.298-7.148-0.706-0.068-1.053 0.116-2.048 0.552-2.986 3.554-10.175 26.321-9.769 22.904-23.913-1.215-5.024-7.765-8.211-11.71-3.953-1.092 1.178-1.443 2.79-1.663 4.362-0.173 1.237 0.023 2.568-0.45 3.753-0.502 1.256-2.006 1.913-3.298 2.054-1.344 0.146-3.039-0.25-3.907-1.362-1.076-1.38-1.433-3.842-1.366-5.54 0.073-1.849 0.518-3.678 1.3-5.356 1.543-3.311 4.361-5.952 7.734-7.342 2.472-1.019 5.193-1.346 7.84-0.986 8.668 1.177 16.198 9.667 13.778 18.621-2.384 8.824-10.545 10.652-17.572 14.444-2.199 1.189-4.334 2.778-5.607 4.982z" fill="#19A89D"/>
<path d="m361.52 251.09c1.08-1.506 0.953-3.776 0.111-5.385-1.091-2.088-2.957-2.335-5.072-1.802-1.377 0.347-2.494 1.23-3.099 2.522-1.044 2.23-0.173 4.865 1.969 6.08 2.066 1.17 4.722 0.494 6.091-1.415z" fill="#000"/>
<path d="m356.26 250.92c-1.343-0.785-1.851-2.464-1.128-3.842 0.713-1.362 2.516-2.012 3.902-1.297 1.357 0.703 1.964 2.647 1.218 3.994-0.773 1.399-2.605 1.954-3.992 1.145z" fill="#19A89D"/>
<path d="m359.07 271.25c-0.214-4.03-1.282-8.059-2.461-11.886-1.371-4.449-3.294-8.721-5.686-12.712-0.028-0.045-0.065-0.066-0.096-0.104-0.189-0.227 0.811-4.08 0.829-4.7 0.042-1.484-0.55-3 0.148-4.326 1.156-2.197 0.302-5.278-1.403-6.972-0.989-0.98-2.51-1.278-3.617-0.51-0.142-0.269-0.295-0.523-0.463-0.74-0.889-1.157-2.574-1.571-3.743-0.772-0.403-1.604-1.145-3.186-2.703-3.889-1.581-0.715-3.303-0.06-3.962 1.431-0.509-0.517-1.132-0.878-1.895-0.96-2.361-0.257-3.514 2.021-2.824 3.957-0.106 1.27-0.082 2.743 0.384 3.939-2.879-0.254-5.756-0.508-8.636-0.763-0.149-0.186-0.375-0.304-0.699-0.252-1.493 0.237-2.984 0.474-4.474 0.71-0.886 0.141-1.143 1.192-0.367 1.687 1.133 0.72 2.265 1.441 3.399 2.163 0.295 0.188 0.574 0.17 0.794 0.039 2.154 0.296 4.307 0.591 6.46 0.886-7e-3 0.011-0.017 0.018-0.022 0.029-1.216 1.846-0.122 3.981 0.919 5.617 1.519 2.385 3.351 4.542 5.365 6.52 1.715 6.481 2.909 15.617-3.302 18.803-0.264 7e-3 -0.523 0.12-0.708 0.323-1.053 0.426-2.285 0.705-3.735 0.795-6.658 0.416-13.636-0.533-20.317-0.932-0.325-0.225-0.776-0.243-1.085-4e-3 -0.474 0.146-0.614 0.695-0.434 1.142-1.741 8.99-3.178 20.245 4.893 26.704 3.318 2.656 7.581 3.179 11.695 2.917 5.614-0.357 11.463-1.346 16.895-2.822 4.734-1.288 9.332-3.411 13.042-6.672 3.197-2.811 5.639-6.665 6.917-10.775 0.803-2.588 1.032-5.229 0.892-7.871z" fill="#000"/>
<path d="m320.96 234.47-0.661-0.42c0.265-0.043 0.53-0.084 0.796-0.126l-0.135 0.546z" fill="#FEFEFE"/>
<path d="m347.55 231.81c0.029-0.029 0.062-0.041 0.091-0.076 1.286-1.617 2.644 1.822 2.847 2.658 0.231 0.949 0.246 2.045-0.439 2.824-0.802 0.915-2.324 0.68-2.238-0.684 0.017-0.257-0.07-0.442-0.2-0.577 0.068-0.178 0.128-0.359 0.167-0.545 0.213-1.015 0.104-2.356-0.228-3.6z" fill="#FEFEFE"/>
<path d="m343 230.52c0.147-0.042 0.291-0.119 0.414-0.282 1.512-1.995 2.629 3.224 2.652 3.998 0.042 1.364-0.985 2.792-2.323 1.62-0.776-0.679-0.686-2.201-0.696-3.132-1e-3 -0.18-0.057-0.319-0.131-0.44 0.109-0.578 0.129-1.179 0.084-1.764z" fill="#FEFEFE"/>
<path d="m337.53 227.04c0.552-2.589 2.794 0.189 3.084 0.894 0.216 0.525 0.342 1.1 0.454 1.652 0.154 0.752 0.347 1.808 0.095 2.571-0.739 2.23-2.557 0.817-3.267-0.509 0.022-0.295 0.021-0.589-0.012-0.874-0.104-0.938-0.364-2.104-0.838-3.139 0.226-0.094 0.417-0.28 0.484-0.595z" fill="#FEFEFE"/>
<path d="m337.17 233.84c0.463 0.572 1.025 1.038 1.675 1.269-0.085 0.226-0.084 0.487 0.078 0.754 0.464 0.76-0.703 0.917-1.987 0.885-0.066-0.789-0.132-1.579-0.198-2.368 0.157-0.165 0.305-0.344 0.432-0.54z" fill="#FEFEFE"/>
<path d="m332.91 228.45c-6e-3 -0.013-4e-3 -0.025-0.012-0.038 0.177-0.506 0.353-1.012 0.528-1.517 0.368 0.078 0.737 0.157 1.103 0.235 0.455 0.296 0.706 0.932 0.904 1.412 0.325 0.789 0.635 1.758 0.677 2.635-0.133 0.192-0.186 0.442-0.063 0.738 4e-3 0.01 9e-3 0.021 0.014 0.031-0.171 0.692-0.655 1.299-1.254 1.399-0.1-0.066-0.221-0.114-0.376-0.128-0.129-0.012-0.258-0.022-0.387-0.034-0.109-0.063-0.219-0.134-0.329-0.236-1.03-0.96-0.809-2.694-0.679-3.943 0.022-0.217-0.037-0.397-0.126-0.554z" fill="#FEFEFE"/>
<path d="m322.7 234.9c0.074-0.306 0.15-0.613 0.224-0.919 3.488 0.308 6.976 0.616 10.463 0.925 0.216 0.096 0.444 0.181 0.701 0.24 0.325 0.074 0.629 0.092 0.917 0.069 0.038 0.46 0.077 0.92 0.115 1.38-0.509-0.058-0.862-0.114-0.869-0.115l-4.154-0.569c-2.466-0.336-4.932-0.674-7.397-1.011z" fill="#FEFEFE"/>
<path d="m326.14 297.02c-4.392 0.625-9.252 1.384-13.408-0.653-9.628-4.719-8.039-17.222-6.364-25.947 5.535 0.298 11.07 0.636 16.607 0.877 2.368 0.102 4.793 0.151 7.018-0.483-0.052 8.599 1.908 16.815 5.773 24.519-3.171 0.743-6.409 1.229-9.626 1.687z" fill="#19A89D"/>
<path d="m357.26 274.85c-1.293 9.452-7.554 15.905-16.331 19.052-1.095 0.391-2.205 0.729-3.324 1.033-3.987-7.772-5.877-16.09-5.729-24.801 0.558-0.284 1.096-0.625 1.61-1.045 6.059-4.948 4.279-13.532 2.547-20.063-0.021-0.075-0.061-0.124-0.094-0.185-6e-3 -0.022-0.019-0.042-0.029-0.062-0.026-0.042-0.051-0.087-0.083-0.121-0.037-0.053-0.057-0.111-0.108-0.161-1.871-1.823-3.592-3.804-5.012-6.005-0.387-0.602-0.897-1.273-1.124-1.951-0.315-0.938-0.251-2.38 1.002-2.633 0.109-0.021 0.212-0.031 0.316-0.033 0.168 0.027 0.335 0.051 0.506 0.082 1.298 0.407 2.114 2.361 2.564 3.413 0.171 0.402 0.526 0.566 0.874 0.559 0.126 0.024 0.262 0.023 0.41-0.017 0.994-0.273 1.948-0.046 2.791 0.528 0.949 0.647 1.759-0.949 0.821-1.588-1.048-0.714-2.295-0.952-3.52-0.771-0.245-0.541-0.516-1.079-0.831-1.578 1.085 0.171 2.17 0.294 3.213 0.263 2.162-0.064 3.856-1.542 2.794-3.604 0.056-0.017 0.108-0.023 0.164-0.044 0.261-0.093 0.494-0.215 0.703-0.354 0.257 1.463 0.893 2.833 2.453 3.32 0.849 0.266 1.647 0.089 2.308-0.337 0.451 1.182 1.7 2.004 3.029 1.862 0.215-0.024 0.416-0.077 0.611-0.144 0.323 2.315 0.082 4.651-0.721 6.863-0.158 0.432 0.012 0.818 0.29 1.061 0.021 0.084 0.038 0.17 0.09 0.256 4.876 8.146 7.518 17.104 7.876 26.534-0.025 0.225-0.035 0.446-0.066 0.671z" fill="#FEFEFE"/>
<path d="m325 343.49c-1.497-4.753-3.865-9.412-5.723-14.05-4.874-12.162-6.415-25.617-4.581-38.589 0.76-5.381 2.03-11.163-0.408-16.019-1.752-3.491-5.219-5.886-8.925-7.115-3.707-1.228-7.671-1.415-11.574-1.443-5.972-0.042-12.207 0.288-17.938 2.298-4.908 1.722-9.529 4.808-12.383 9.229-3.095 4.795-5.411 9.858-6.93 15.399-2.636 9.615-3.026 19.741-2.249 29.639 0.678 8.641 2.223 17.29 5.568 25.285 3.343 7.997 8.573 15.34 15.668 20.321 8.328 5.849 19.073 8.143 29.063 6.201 5.127-0.996 10.098-3.099 14.069-6.494 3.967-3.394 6.873-8.136 7.605-13.306 0.549-3.868-0.091-7.64-1.262-11.356z" fill="#000"/>
<path d="m323.76 357.9c-6.559 19.208-34.058 18.819-47.749 8.707-15.412-11.386-19.714-31.511-20.085-49.597-0.22-10.79 0.222-22.237 5.067-32.103 2.214-4.508 5.479-8.544 9.558-11.492 4.293-3.101 9.577-4.128 14.74-4.676 5.545-0.59 11.394-1.403 16.917-0.274 2.966 0.605 5.736 1.917 7.911 4.048 1.197 1.176 2.144 2.581 2.831 4.109 2.197 4.887 0.527 10.314-0.164 15.355-0.579 4.223-0.788 8.496-0.623 12.754 0.34 8.711 2.225 17.317 5.545 25.376 3.542 8.602 9.33 18.197 6.052 27.793z" fill="#19A89D"/>
<path d="m393.92 323.37c-4.309 0.988-8.282 3.212-11.247 6.508-5.034 5.598-6.673 14.246-6.408 21.575 0.078 2.207 0.429 4.961 2.339 6.386 3.172 2.368 7.181-0.987 9.727-2.673 5.463-3.617 10.752-7.514 15.655-11.868 4.027-3.575 9.522-8.091 11.899-13.008 4.914-10.165-17.29-7.992-21.965-6.92z" fill="#000"/>
<path d="m411.21 333.52c-5.234 6.025-11.336 11.247-17.774 15.94-2.843 2.072-5.743 4.142-8.755 5.958-1.797 1.084-4.101 1.693-5.358-0.426-1.361-2.288-1.318-5.088-1.032-7.649 0.294-2.623 0.545-5.475 1.154-8.037 0.256-1.082 0.602-2.142 1.047-3.16 0.224-0.518 0.473-1.028 0.745-1.522 0.208-0.375 0.868-1.072 0.913-1.476 2.473-3.598 6.166-6.22 10.313-7.541 0.568-0.181 1.182-0.273 1.736-0.476 4.387-1.009 9.03-1.061 13.49-0.633 1.553 0.149 3.839 0.118 5.165 0.911 4.23 2.534 0.098 6.106-1.644 8.111z" fill="#000"/>
<path d="m393.89 423.21c-7.232-2.864-15.29-3.42-22.853-1.623-3.119 0.743-6.133 2.074-8.066 4.738-2.048 2.821-4.137 5.871-4.235 9.487-0.021 0.805 0.059 1.612 0.239 2.399 0.926 4.04 4.307 6.011 8.221 6.364 7.134 0.642 15.005-1.25 22.105-2.018 4.826-0.522 11.969 8e-3 16.168-2.894 8.65-5.98-7.023-14.649-11.579-16.453z" fill="#000"/>
<path d="m403.29 438.74c-3.426 1.797-8.502 1.43-12.284 1.839-4.512 0.488-9.026 0.976-13.539 1.463-3.854 0.418-8.691 1.621-12.494 0.328-2.421-0.824-4.346-2.549-4.479-5.223-0.123-2.466 1-4.916 2.2-7.005 1.161-2.014 2.207-4.389 4.384-5.505 2.548-1.306 5.871-1.785 8.685-2.104 3.609-0.41 7.276-0.27 10.845 0.41 3.723 0.709 7.348 1.98 10.669 3.812 2.856 1.574 13.228 8.197 6.013 11.985z" fill="#000"/>
<path d="m393.3 421.67s1e-3 -5e-3 0-7e-3c-3.044-13.615-6.388-27.16-10.076-40.617-3.486-12.725-6.708-25.908-11.783-38.11-3.746-9.003-9.485-17.744-18.475-22.197-7.954-3.939-17.563-3.388-24.429 2.367-0.37-0.157-0.828-0.108-1.096 0.336-8.144 13.46-13.868 28.091-17.01 43.509-0.078 0.377 0.075 0.673 0.308 0.869-0.105 0.688 0.834 1.386 1.532 0.78 6.036-5.231 15.044-6.491 22.197-2.717 7.017 3.701 10.236 11.457 12.814 18.516 5.606 15.358 9.77 31.219 12.691 47.297 0.031 0.168 0.102 0.291 0.188 0.39 0.079 0.359 0.345 0.656 0.826 0.624 11.381-0.752 22.182-4.138 31.934-10.056 0.4-0.241 0.48-0.636 0.379-0.984z" fill="#000"/>
<path d="m354.54 400.78c-2.59-8.818-5.146-18.234-9.592-26.338-6.577-11.985-21.38-16.5-32.523-8.239 3.125-14.653 8.596-28.572 16.309-41.426 0.258 0.061 0.543 0.027 0.797-0.193 9.038-7.841 21.86-4.787 29.883 2.903 7.831 7.506 11.435 18.022 14.56 28.133 6.707 21.695 12.483 43.675 17.453 65.831-9.143 5.425-19.184 8.608-29.786 9.407-1.855-10.141-4.195-20.183-7.101-30.078z" fill="#FEFEFE"/>
<path d="m354.54 400.78c-2.59-8.818-5.146-18.234-9.592-26.338-6.577-11.985-21.38-16.5-32.523-8.239 3.125-14.653 8.596-28.572 16.309-41.426 0.258 0.061 0.543 0.027 0.797-0.193 9.038-7.841 21.86-4.787 29.883 2.903 7.831 7.506 11.435 18.022 14.56 28.133 6.707 21.695 12.483 43.675 17.453 65.831-9.143 5.425-19.184 8.608-29.786 9.407-1.855-10.141-4.195-20.183-7.101-30.078z" fill="#FEFEFE"/>
<path d="m374.22 356.43c-0.083-0.269-0.163-0.541-0.246-0.81-3.125-10.111-6.73-20.625-14.56-28.132-8.023-7.69-20.846-10.745-29.883-2.904-0.254 0.22-0.54 0.256-0.798 0.194-7.713 12.854-13.185 26.773-16.309 41.424 10.168-7.538 23.381-4.433 30.613 5.276-0.343-5.929 2.084-11.977 7.261-15.488 7.556-5.126 16.586-3.881 23.922 0.44z" fill="#19A89D"/>
<path d="m390.32 416.35c-9.491 4.889-19.618 7.884-30.242 8.924-1.136 0.112-1.147 1.902 0 1.789 10.941-1.07 21.373-4.135 31.145-9.169 1.024-0.526 0.119-2.072-0.903-1.544z" fill="#000"/>
<path d="m391.98 320.41c-8.354-18.426-30.075-24.974-48.73-20.647-16.383 3.798-29.533 13.947-41.218 25.599-0.102-4e-3 -0.209 3e-3 -0.327 0.044-15.257 5.349-28.8 14.334-39.623 26.348-0.021 0.023-0.025 0.047-0.045 0.072-5e-3 9e-3 -9e-3 0.02-0.016 0.03-0.285 0.41-0.175 0.882 0.12 1.175 7.356 21.381 32.088 29.513 51.241 17.851 10.741-6.54 18.634-16.804 29.489-23.175 10.619-6.234 28.299-7.683 33.805 6.212 0.055 0.139 0.135 0.247 0.227 0.336 0.204 0.579 0.922 0.961 1.419 0.367 7.935-9.481 12.576-20.892 13.511-33.206 0.219-0.257 0.321-0.621 0.147-1.006z" fill="#000"/>
<path d="m377.89 352.32c-3.599-7.542-11.81-11.333-20.057-11.189-11.064 0.194-20.45 7.548-28.377 14.518-10.162 8.934-20.589 19.137-35.07 19.083-14.014-0.053-26.057-9.131-30.552-22.239 9.824-10.741 21.834-18.995 35.366-24.254-4.024 4.168-7.886 8.47-11.658 12.701-0.765 0.857 0.496 2.127 1.264 1.265 14.259-15.985 29.483-32.916 50.581-39.528 18.751-5.878 41.749-0.883 50.759 18.059-0.03 0.08-0.063 0.155-0.07 0.252-0.791 11.524-5.001 22.33-12.186 31.332z" fill="#FEFEFE"/>
<path d="m385.43 314.2c-0.994 9.06-3.604 17.71-7.701 25.73-8.114-4.624-17.704-6.187-26.822-3.874-10.031 2.546-17.95 9.624-25.483 16.332-8.994 8.01-19.374 16.978-32.268 16.231-12.443-0.721-18.944-11.759-24.196-21.607-0.542-1.017-2.087-0.114-1.545 0.903 4.292 8.051 9.235 16.956 18.037 20.739 9.347 4.016 19.957 0.777 28.104-4.461 9.787-6.293 17.257-15.564 27.155-21.706 11.229-6.967 24.678-7.544 36.184-0.967-1.077 1.991-2.248 3.941-3.51 5.846-0.638 0.963 0.912 1.861 1.545 0.903 6.812-10.28 10.944-21.813 12.289-34.069 0.126-1.143-1.665-1.134-1.789 0z" fill="#000"/>
<path d="m277.26 260.16c-0.834-2.932-3.342-5.442-6.603-4.592-3.28 0.855-5.026 4.358-3.989 7.53 1.001 3.062 4.407 5.098 7.566 4.077 3.087-0.998 3.826-4.201 3.026-7.015z" fill="#000"/>
<path d="m272.98 265.34c-1.994 0.247-3.834-1.125-4.401-3.005-0.672-2.241 0.836-4.476 3.176-4.698 4.079-0.387 5.597 7.163 1.225 7.703z" fill="#FEFEFE"/>
<path d="m316.6 249.71c-0.834-2.932-3.34-5.441-6.602-4.59-3.279 0.854-5.026 4.357-3.989 7.529 1.001 3.062 4.406 5.097 7.566 4.076 3.087-0.997 3.825-4.2 3.025-7.015z" fill="#000"/>
<path d="m312.33 254.89c-1.995 0.247-3.836-1.125-4.401-3.005-0.673-2.241 0.836-4.476 3.176-4.698 4.079-0.387 5.596 7.163 1.225 7.703z" fill="#FEFEFE"/>
<path d="m296.4 266.5c-4.64-4.178-11.116-3.889-16.299-0.942-0.463 0.263-0.469 0.709-0.252 1.058-0.03 0.069-0.067 0.132-0.08 0.218-0.932 6.003-0.483 13.232 5.14 16.899 4.619 3.011 10.965 1.525 13.815-3.159 2.827-4.65 1.644-10.501-2.324-14.074z" fill="#000"/>
<path d="m297.16 279.63c-2.986 4.74-9.677 5.196-13.292 0.8-3.086-3.752-3.044-8.761-2.337-13.314 0.018-0.113 3e-3 -0.212-0.015-0.309 4.086-2.185 9.109-2.468 12.957 0.423 3.833 2.878 5.331 8.203 2.687 12.4z" fill="#19A89D"/>
<path d="m306.84 232.19c-4.964-8.357-15.708-11.229-24.347-6.882-5.19 2.612-8.977 7.267-10.733 12.784-1.206 3.794-1.286 7.849-0.98 11.786 0.292 3.753 0.668 7.765 1.869 11.351 2.118 6.324 6.899 11.486 13.285 13.582 9.159 3.003 19.58-1.415 23.17-10.519 1.846-4.685 1.857-9.897 1.698-14.855-0.192-5.933-0.873-12.048-3.962-17.247z" fill="#000"/>
<path d="m308.87 246.3c0.816 11.039-0.394 24.706-13.55 27.392-5.923 1.209-11.791-0.796-15.909-5.182-5.651-6.021-7.631-16.286-6.968-24.319 0.236-2.864 0.943-5.702 2.162-8.308 2.522-5.386 7.246-9.372 13.125-10.523 13.399-2.623 20.28 9.336 21.14 20.94z" fill="#FEFEFE"/>
<path d="m308.87 246.3c0.816 11.039-0.394 24.706-13.55 27.392-5.923 1.209-11.791-0.796-15.909-5.182-5.651-6.021-7.631-16.286-6.968-24.319 0.236-2.864 0.943-5.702 2.162-8.308 2.522-5.386 7.246-9.372 13.125-10.523 13.399-2.623 20.28 9.336 21.14 20.94z" fill="#FEFEFE"/>
<path d="m287.74 225.35c-5.884 1.15-10.611 5.133-13.135 10.515-1.22 2.603-1.929 5.438-2.165 8.299-0.342 4.142 0.028 8.874 1.237 13.314 3.908-3.101 6.927-6.908 9.087-11.426 2.225 2.846 5.301 5.798 9.174 4.711 2.327-0.653 3.586-2.619 3.465-4.683 4.196 2.353 8.878 4.376 13.659 3.114-0.034-0.987-0.088-1.966-0.158-2.922-0.861-11.592-7.753-23.541-21.164-20.922z" fill="#19A89D"/>
<path d="m312.68 225.97c-4.219-5.831-13.081-6.416-19.922-6.606 0.848-0.851 1.41-1.914 1.001-3.193-0.691-2.154-2.734-1.88-4.475-1.253-6.589 2.372-11.855 7.57-15.072 13.681-4.096 1.035-6.655 6.802-7.538 10.323-1.565 6.255 0.243 12.495 4.327 17.368 0.234 0.277 0.537 0.363 0.821 0.321 0.233 0.594 1.043 0.948 1.506 0.279 3.801-5.49 6.217-11.729 6.681-18.423 9e-3 -0.122 0.016-0.257 0.025-0.385 1.936 3.843 4.99 6.903 9.049 8.972 0.61 0.312 1.352-0.272 1.262-0.926-0.32-2.347-0.955-4.503-1.916-6.558 6.109 3.5 12.776 5.556 19.885 6.07 0.351 0.258 0.834 0.281 1.135-0.193 3.554-5.573 7.788-13.18 3.231-19.477z" fill="#000"/>
<path d="m277.25 244.05c-0.973 3.982-2.692 7.643-4.944 11.042-2.642-3.207-4.336-6.984-4.452-11.188-0.068-2.48 0.449-4.948 1.417-7.223 0.647-1.519 5.421-10.678 8.79-3.827 0.079 0.16 0.145 0.331 0.204 0.512 0.053 0.215 0.111 0.426 0.168 0.638 0.587 2.94-0.603 7.674-1.183 10.046z" fill="#000"/>
<path d="m308.36 243.83c-7.908-0.614-15.237-3.111-21.838-7.558-0.844-0.569-1.872 0.368-1.286 1.247 1.478 2.219 2.44 4.467 2.995 6.969-4.141-2.61-6.976-6.548-8.131-11.422-0.035-0.153-0.104-0.278-0.189-0.383-0.389-2.096-1.357-3.864-3.566-4.203 1.747-3.08 3.982-5.786 6.792-7.995 1.465-1.151 3.038-2.138 4.706-2.968 0.467-0.232 1.611-0.986 2.132-0.923 1.127 0.134 1.131 1.937-0.03 2.664-0.524 0.329-0.455 0.883-0.134 1.245 0.055 0.32 0.285 0.581 0.723 0.593 5.677 0.141 11.791 0.226 16.939 2.94 8.62 4.544 4.831 13.469 0.887 19.794z" fill="#000"/>
<path d="m289.72 259.25c-0.876 0.708-1.912 1.062-3.043 0.957-1.141-0.106-1.425 1.654-0.278 1.761 1.599 0.148 3.138-0.276 4.391-1.289 0.892-0.72-0.173-2.153-1.07-1.429z" fill="#000"/>
<path d="m304.1 254.64c-0.614 0.696-1.498 0.908-2.385 0.697-1.121-0.265-1.392 1.497-0.278 1.761 1.512 0.36 3.048-0.197 4.061-1.347 0.762-0.863-0.639-1.971-1.398-1.111z" fill="#000"/>
<path d="m297.39 255.57c-0.689-0.919-2.12 0.149-1.427 1.072 1.172 1.565 1.672 3.396 1.434 5.342-0.14 1.141 1.619 1.421 1.761 0.278 0.296-2.416-0.309-4.745-1.768-6.692z" fill="#000"/>
<path d="m285.32 316.98c-0.445-13.167-2.614-26.231-5.576-39.049-0.512-2.216-0.963-4.455-1.528-6.659-0.146-0.569-0.308-1.143-0.612-1.647-0.875-1.444-3.021-1.751-4.456-2.362-1.892-0.803-3.875-1.447-5.916-1.722-4.027-0.541-7.844 0.719-10.135 4.21-0.398 0.606-0.739 1.248-1.034 1.908-2.201 4.927-2.277 11.029-2.281 16.313-6e-3 6.38 0.748 12.773 2.237 18.977 2.156 8.986 6.003 22.781 16.61 24.909 9.543 1.913 12.956-6.997 12.691-14.878z" fill="#000"/>
<path d="m282.3 325.56c-3.918 8.401-13.816 4.174-17.786-1.679-6.589-9.711-8.823-23.6-8.943-35.079-0.058-5.573-0.211-12.514 2.66-17.499 4.172-7.247 12.323-3.78 17.948-0.523 6e-3 0.036-4e-3 0.064 6e-3 0.101 3.284 12.836 5.615 25.885 6.83 39.084 0.457 4.96 1.469 10.911-0.715 15.595z" fill="#19A89D"/>
<path d="m290.38 268.32c0.134-0.952-0.362-1.987-1.485-2.415-0.232-0.087-0.464-0.135-0.696-0.163 0.245-1.147-0.334-2.235-2.054-2.503-0.796-0.125-1.603-0.085-2.4 0.058 0.407-0.909 0.412-1.89-0.512-2.75-1.946-1.81-4.678 0.299-6.02 1.762-3.795 4.13-4.04 9.843-1.468 14.329-3.609 13.585-13.991 25.13-13.7 39.628-0.092 0.134-0.156 0.296-0.139 0.512 0.437 5.508 2.787 11.039 7.932 13.682 4.948 2.542 10.84 1.536 14.409-2.768 4.249-5.121 4.482-12.646 5.052-18.968 0.84-9.327 0.906-18.689 0.326-28.035 1.361-0.699 1.761-2.247 1.857-3.815 0.076-1.272-6e-3 -1.984 0.874-3.087 0.307-0.384 0.706-0.685 0.998-1.085 0.503-0.686 0.928-1.5 0.811-2.378-0.251-1.92-2.17-2.37-3.785-2.004z" fill="#000"/>
<path d="m291.85 271.68c-0.229 0.301-0.483 0.583-0.76 0.842-0.525 0.623-0.989 1.219-1.205 2.025-0.361 1.352 0.38 4.275-1.507 4.702-0.619 0.14-0.739 0.721-0.547 1.177 0 0.021-9e-3 0.036-8e-3 0.057 0.746 11.816 0.574 23.811-1.14 35.543-0.865 5.918-3.11 13.397-10.216 13.958-7.18 0.566-11.598-5.419-12.604-11.813 0.03-0.097 0.052-0.201 0.042-0.324-1.07-14.497 9.133-26.026 13.16-39.312 0.459 0.548 0.956 1.075 1.514 1.556 0.867 0.75 2.139-0.51 1.265-1.265-2.741-2.372-4.33-5.476-4.002-9.178 0.143-1.606 0.591-3.047 1.434-4.448 0.42-0.757 0.948-1.438 1.582-2.044 3.443-2.395 3.909-0.014 1.794 1.29-0.802 0.455-1.548 0.994-2.188 1.588-0.844 0.787 0.424 2.05 1.265 1.265 1.095-1.018 2.347-1.743 3.807-2.096 0.557-0.135 1.457-0.381 2.044-0.226 0.674-0.115 0.916 0.179 0.727 0.885-0.139 0.149-0.298 0.278-0.454 0.409-0.071 0.038-0.144 0.072-0.213 0.11-1.537 0.855-2.972 1.966-4.435 2.943-0.952 0.638-0.056 2.188 0.904 1.546 1.069-0.715 2.136-1.432 3.205-2.145 0.402-0.269 0.807-0.561 1.229-0.798 0.361-0.236 0.755-0.379 1.182-0.431 0.544-0.088 2.015 0.072 0.227 1.841-1.515 0.889-2.871 2.141-3.953 3.409-0.744 0.871 0.517 2.142 1.265 1.265 0.973-1.141 2.048-2.144 3.336-2.926 0.484-0.294 1.394-0.968 1.983-0.981 1.618 0.377 2.042 0.904 1.267 1.576z" fill="#FEFEFE"/>
<path d="m228.28 444.02-0.03-108.71c-1e-3 -2.761 2.258-5.021 5.02-5.022 2.761-1e-3 5.021 2.257 5.022 5.019l0.03 108.71c1e-3 2.762-2.258 5.022-5.019 5.023-2.762 1e-3 -5.023-2.257-5.023-5.019z" fill="#FEFEFE"/>
<path d="m238.3 335.3c0-0.9-0.244-1.743-0.663-2.477-2.869-0.117-5.763-0.115-8.61-0.174-0.484 0.772-0.77 1.68-0.769 2.655l5e-3 17.296c3.365-0.359 6.713-0.842 10.042-1.431l-5e-3 -15.869z" fill="#19A89D"/>
<path d="m228.28 445.87-0.03-108.71c-1e-3 -2.762 2.258-5.023 5.02-5.023 2.761-1e-3 5.021 2.258 5.022 5.019l0.03 108.71c1e-3 2.761-2.258 5.021-5.019 5.022-2.762 1e-3 -5.023-2.257-5.023-5.019z" stroke="#000" stroke-miterlimit="10" stroke-width=".56944"/>
<path d="m295.48 340.32h-124.38c-2.762 0-5.021-2.259-5.021-5.02 0-2.763 2.259-5.022 5.021-5.022h124.38c2.763 0 5.021 2.259 5.021 5.022 0 2.761-2.258 5.02-5.021 5.02z" fill="#000"/>
<path d="m295.48 340.32h-124.38c-2.762 0-5.021-2.259-5.021-5.02 0-2.763 2.259-5.022 5.021-5.022h124.38c2.763 0 5.021 2.259 5.021 5.022 0 2.761-2.258 5.02-5.021 5.02z" stroke="#000" stroke-miterlimit="10" stroke-width=".56944"/>
<path d="m233.29 444.95c-27.398 0-49.607 3.567-49.607 7.967h99.213c0-4.4-22.209-7.967-49.606-7.967z" fill="#000"/>
<path d="m233.29 444.95c-27.398 0-49.607 3.567-49.607 7.967h99.213c0-4.4-22.209-7.967-49.606-7.967z" stroke="#000" stroke-miterlimit="10" stroke-width=".56944"/>
<path d="m260.33 328.14-0.927-4.67c-0.045-0.221-0.174-0.383-0.29-0.49-0.227-0.201-0.435-0.284-0.662-0.369-0.394-0.14-0.862-0.239-1.44-0.333-1.718-0.274-4.385-0.443-7.365-0.444h-71.032c-2.387 1e-3 -4.534 0.111-6.124 0.294-0.798 0.093-1.451 0.2-1.966 0.342-0.261 0.071-0.485 0.145-0.714 0.274-0.114 0.065-0.234 0.146-0.349 0.276-0.114 0.126-0.221 0.328-0.22 0.553l0.013 0.151 0.929 4.668c0.044 0.221 0.172 0.385 0.289 0.492 0.227 0.199 0.435 0.282 0.662 0.369 0.392 0.139 0.861 0.238 1.439 0.331 1.719 0.274 4.386 0.443 7.365 0.444h71.033c2.386 0 4.535-0.109 6.124-0.293 0.798-0.094 1.452-0.2 1.966-0.341 0.26-0.073 0.486-0.147 0.715-0.276 0.112-0.064 0.233-0.145 0.348-0.275 0.114-0.127 0.222-0.328 0.221-0.555l-0.015-0.148z" fill="#000"/>
<path d="m250.97 328.51h-71.033c-2.352 1e-3 -4.514-0.113-6.067-0.287-0.774-0.087-1.4-0.193-1.785-0.293-0.079-0.019-0.138-0.039-0.194-0.058l-0.786-3.961c0.147-0.039 0.337-0.082 0.558-0.121 1.39-0.25 3.992-0.432 6.95-0.431h71.032c2.351 0 4.515 0.111 6.067 0.287 0.775 0.087 1.401 0.192 1.785 0.292 0.078 0.02 0.139 0.04 0.192 0.057l0.788 3.963c-0.147 0.038-0.337 0.082-0.558 0.12-1.389 0.252-3.992 0.434-6.949 0.432z" fill="#19A89D"/>
<path d="m240 317.59-9.87-36.416c-0.642-2.356-2.107-4.45-3.96-5.976-1.854-1.522-4.114-2.495-6.406-2.499h-60.473c-1.893-4e-3 -3.546 0.692-4.689 1.887-1.147 1.192-1.773 2.85-1.771 4.683 0 0.764 0.107 1.561 0.328 2.374l9.869 36.415c0.641 2.357 2.107 4.45 3.961 5.976 1.853 1.523 4.113 2.496 6.406 2.5h60.472c1.892 3e-3 3.546-0.693 4.688-1.888 1.147-1.192 1.774-2.85 1.771-4.681 0-0.766-0.107-1.562-0.326-2.375z" fill="#000"/>
<path d="m237.26 323.4c-0.798 0.826-1.929 1.333-3.397 1.337h-60.473c-1.77 5e-3 -3.681-0.781-5.271-2.092-1.591-1.306-2.846-3.12-3.369-5.061l-9.868-36.416c-0.182-0.67-0.265-1.31-0.265-1.907 2e-3 -1.433 0.477-2.612 1.272-3.441 0.798-0.826 1.928-1.334 3.396-1.338h60.474c1.77-4e-3 3.678 0.781 5.269 2.092 1.591 1.306 2.846 3.121 3.37 5.062l9.869 36.416c0.181 0.67 0.265 1.309 0.265 1.907-2e-3 1.432-0.477 2.611-1.272 3.441z" fill="#FEFEFE"/>
<path d="m233.5 323.48c-0.756 0.781-1.827 1.261-3.217 1.264h-57.263c-1.675 5e-3 -3.485-0.738-4.99-1.977-1.508-1.236-2.696-2.951-3.191-4.785l-9.344-34.428c-0.173-0.633-0.251-1.238-0.251-1.803 2e-3 -1.355 0.452-2.47 1.205-3.254 0.756-0.78 1.825-1.26 3.216-1.264h57.262c1.676-3e-3 3.484 0.739 4.989 1.977 1.507 1.236 2.695 2.951 3.192 4.787l9.344 34.428c0.171 0.632 0.252 1.236 0.252 1.801-2e-3 1.356-0.451 2.472-1.204 3.254z" fill="#19A89D"/>
</g>
</svg>
