<?xml version="1.0" encoding="UTF-8"?>
<svg fill="none" viewBox="0 0 61 61" xmlns="http://www.w3.org/2000/svg">
<path d="m30.5 22.862c-4.3007 0-7.8105 3.5098-7.8105 7.8106 0 4.3007 3.5098 7.8105 7.8105 7.8105 4.3008 0 7.8106-3.5098 7.8106-7.8105 0-4.3008-3.5098-7.8106-7.8106-7.8106zm23.426 7.8106c0-3.2344 0.0293-6.4395-0.1523-9.668-0.1817-3.75-1.0371-7.0781-3.7793-9.8203-2.7481-2.7481-6.0703-3.5977-9.8203-3.7793-3.2344-0.18164-6.4395-0.15234-9.668-0.15234-3.2344 0-6.4395-0.0293-9.668 0.15234-3.75 0.18165-7.0781 1.0371-9.8203 3.7793-2.748 2.748-3.5976 6.0703-3.7793 9.8203-0.18165 3.2344-0.15235 6.4394-0.15235 9.668 0 3.2285-0.0293 6.4394 0.15235 9.6679 0.18164 3.75 1.0371 7.0781 3.7793 9.8203 2.7481 2.7481 6.0703 3.5977 9.8203 3.7793 3.2344 0.1817 6.4395 0.1524 9.668 0.1524 3.2344 0 6.4394 0.0293 9.668-0.1524 3.75-0.1816 7.0781-1.0371 9.8203-3.7793 2.748-2.748 3.5976-6.0703 3.7793-9.8203 0.1875-3.2285 0.1523-6.4336 0.1523-9.6679zm-23.426 12.018c-6.6504 0-12.018-5.3672-12.018-12.018 0-6.6504 5.3671-12.018 12.018-12.018s12.018 5.3672 12.018 12.018c0 6.6503-5.3672 12.018-12.018 12.018zm12.51-21.721c-1.5527 0-2.8066-1.2539-2.8066-2.8066s1.2539-2.8067 2.8066-2.8067 2.8066 1.254 2.8066 2.8067c5e-4 0.3687-0.0718 0.7339-0.2127 1.0746-0.1408 0.3407-0.3476 0.6503-0.6083 0.911s-0.5703 0.4674-0.911 0.6083-0.7059 0.2132-1.0746 0.2127z" fill="#fff"/>
</svg>
